<?xml version="1.0" encoding="UTF-8" standalone="no"?>
<svg
   width="986"
   height="818"
   viewBox="0 0 300 818"
   fill="none"
   version="1.1"
   id="svg26"
   xmlns="http://www.w3.org/2000/svg">
  <path
     opacity="0.1"
     d="m 797.8,647.417 -30.2,-16.678 30.2,-16.865 3.53,-1.874 h -1.96 l -2.55,1.312 -30.4,16.678 -30.4,-16.678 -2.35,-1.312 h -1.96 l 3.53,1.874 30.4,16.678 -30.4,16.677 -30.4,16.678 -30.4,-16.678 -30.002,-16.49 30.202,-16.865 3.53,-1.874 h -1.96 l -2.55,1.312 -30.398,16.678 -30.201,-16.678 -2.55,-1.312 h -1.961 l 3.53,1.874 30.397,16.865 -30.397,16.678 -30.397,16.678 -30.397,-16.678 -30.005,-16.678 30.201,-16.865 3.53,-1.874 h -1.961 l -2.55,1.312 -30.397,16.678 -30.397,-16.678 -2.354,-1.312 h -1.961 l 3.53,1.874 30.398,16.678 -30.398,16.677 -30.397,16.678 -30.397,-16.678 -30.201,-16.49 30.397,-16.865 3.53,-1.874 h -1.961 l -2.55,1.312 -30.397,16.678 -30.397,-16.678 -2.353,-1.312 h -1.961 l 3.53,1.874 30.397,16.678 -30.397,16.677 -30.398,16.678 -30.201,-16.49 -30.397,-16.678 30.397,-16.865 3.53,-1.874 h -1.961 l -2.549,1.312 -30.397,16.865 -30.398,-16.678 -2.353,-1.499 h -1.961 l 3.53,1.874 30.397,16.678 -30.397,16.677 -30.397,16.678 -30.398,-16.678 -30.201,-16.49 30.398,-16.865 3.53,-1.874 h -1.961 l -2.55,1.312 L 150.631,629.99 120.234,613.312 117.88,612 h -1.961 l 3.53,1.874 30.397,16.678 -30.397,16.677 L 89.052,663.907 58.655,647.229 28.454,630.739 58.851,613.874 62.381,612 H 60.42 L 57.87,613.312 27.473,629.99 -2.924,613.312 -5.277,612 h -1.961 l 3.53,1.874 30.397,16.678 -30.397,16.677 -30.398,16.866 -30.397,-16.678 -30.397,-16.678 30.397,-16.865 3.53,-1.874 h -1.961 l -2.549,1.312 -30.398,16.678 -30.397,-16.678 -2.157,-1.312 h -1.961 l 3.53,1.874 30.397,16.678 -30.397,16.677 -30.397,16.678 -30.398,-16.678 -30.201,-16.677 30.201,-16.678 3.53,-1.874 h -1.961 l -2.549,1.312 -30.201,16.865 -30.3975,-16.865 -2.5494,-1.312 h -1.9611 l 3.53,1.874 30.397,16.678 -30.397,16.677 -30.3973,16.678 -30.3972,-16.678 -30.00494,-16.677 30.20114,-16.678 3.53,-1.874 h -1.9612 l -2.5494,1.312 L -342,629.99 v 1.124 l 30.2011,16.678 30.3972,16.677 -30.3972,16.866 L -342,698.012 v 1.125 l 30.2011,16.677 30.3972,16.678 -30.3972,16.678 L -342,766.035 v 1.124 l 30.2011,16.678 30.3972,16.678 -30.3972,16.678 L -342,833.871 v 1.124 l 30.2011,16.678 30.3972,16.677 -30.3972,16.678 L -342,901.893 v 1.125 l 30.2011,16.677 30.3972,16.678 -30.3972,16.678 L -342,969.916 v 1.125 l 30.2011,16.677 30.3972,16.678 -30.3972,16.678 -30.2011,16.678 v 1.124 l 30.2011,16.674 30.3972,16.68 -30.3972,16.68 -30.2011,16.86 v 1.13 l 30.2011,16.68 30.3972,16.67 -30.3972,16.68 L -342,1173.8 v 1.12 l 30.2011,16.68 30.3972,16.68 -30.3972,16.67 -30.2011,16.68 v 1.13 l 30.2011,16.67 30.3972,16.68 -20.0033,11.06 h 1.9611 l 19.0228,-10.5 19.0227,10.5 h 1.9611 l -20.0033,-11.06 30.3972,-16.68 30.3974,-16.67 30.397,16.67 30.397,16.68 -20.003,11.06 h 1.961 l 19.023,-10.5 19.023,10.5 h 1.961 l -20.004,-11.06 30.398,-16.68 30.397,-16.67 30.397,16.67 30.397,16.68 -20.003,11.06 h 1.961 l 19.023,-10.5 19.023,10.5 h 1.961 l -20.004,-11.06 30.397,-16.68 30.398,-16.67 30.397,16.67 30.397,16.68 -20.003,11.06 h 1.961 l 19.023,-10.5 19.022,10.5 h 1.962 l -20.004,-11.06 30.397,-16.68 30.398,-16.67 30.397,16.67 30.397,16.68 -20.003,11.06 h 1.961 l 19.023,-10.5 19.022,10.5 h 1.962 l -20.004,-11.06 30.397,-16.68 30.398,-16.67 30.397,16.67 30.397,16.68 -20.003,11.06 h 1.961 l 19.023,-10.5 19.022,10.5 h 1.961 l -20.003,-11.06 30.397,-16.68 30.398,-16.67 30.397,16.67 30.397,16.68 -20.003,11.06 h 1.961 l 19.022,-10.5 19.023,10.5 h 1.961 l -20.003,-11.06 30.397,-16.68 30.397,-16.67 30.398,16.67 30.397,16.68 -20.003,11.06 h 1.961 l 19.022,-10.5 19.023,10.5 h 1.961 l -20.003,-11.06 30.397,-16.68 30.397,-16.67 30.397,16.67 30.4,16.68 -20.01,11.06 h 1.97 l 19.02,-10.5 19.02,10.5 h 1.96 l -20,-11.06 30.4,-16.68 30.39,-16.67 30.4,16.67 30.4,16.68 -20.01,11.06 h 1.97 l 19.02,-10.5 6.47,3.57 v -1.13 l -5.49,-3 5.49,-3 v -1.12 l -6.47,3.56 -30.4,-16.68 -30.4,-16.68 30.4,-16.67 30.4,-16.68 6.47,3.56 v -1.12 l -5.49,-3 5.49,-3 v -1.13 l -6.47,3.56 -30.4,-16.67 -30.4,-16.68 30.4,-16.68 30.4,-16.68 6.47,3.56 v -1.12 l -5.49,-3 5.49,-3 v -1.12 l -6.47,3.56 -30.4,-16.68 -30.4,-16.68 30.4,-16.67 30.4,-16.68 6.47,3.56 v -1.13 l -5.49,-2.99 5.49,-3 v -1.13 l -6.47,3.56 -30.4,-16.67 -30.4,-16.681 30.4,-16.678 30.4,-16.678 6.47,3.56 v -1.499 l -5.49,-2.998 5.49,-2.998 v -1.125 l -6.47,3.561 -30.4,-16.678 -30.4,-16.678 30.4,-16.677 30.4,-16.678 6.47,3.56 v -1.124 l -5.49,-2.998 5.49,-2.999 v -1.124 l -6.47,3.56 -30.4,-16.677 -30.4,-16.678 30.4,-16.678 30.4,-16.678 6.47,3.561 v -1.125 l -5.49,-2.998 5.49,-2.998 v -1.124 l -6.47,3.56 -30.4,-16.678 -30.4,-16.677 30.4,-16.678 30.4,-16.678 6.47,3.56 v -1.124 l -5.49,-2.998 2.16,-3.373 v -1.125 l -6.48,3.561 -30.39,-16.678 -30.4,-16.678 30.4,-16.677 30.39,-16.678 6.48,3.56 v -1.124 l -5.5,-2.998 5.5,-2.999 v -1.124 l -6.48,3.56 -30.39,-16.677 -30.4,-16.678 30.4,-16.678 30.39,-16.678 6.48,3.561 v -1.125 l -5.5,-2.998 5.5,-2.998 v -1.124 l -6.48,3.56 z m -62.56,34.48 30.4,16.677 -30.4,16.678 -30.4,16.678 -30.4,-16.678 -30.002,-16.678 30.402,-16.677 30.39,-16.678 z m -737.968,271.341 -30.397,-16.677 30.397,-16.678 30.397,-16.678 30.397,16.678 30.398,16.678 -30.398,16.677 -30.397,16.678 z m 29.221,17.24 -30.398,16.678 -30.397,16.678 -30.397,-16.678 -30.397,-16.678 30.397,-16.677 30.397,-16.678 30.397,16.678 z m 32.358,-16.677 30.397,-16.678 30.397,16.678 30.398,16.677 -30.398,16.678 -30.397,16.678 -30.397,-16.678 -30.397,-16.678 z m 61.579,-0.563 -30.397,-16.677 30.397,-16.678 30.397,-16.678 30.397,16.678 30.397,16.678 -30.397,16.677 -30.397,16.678 z m 61.579,0.563 30.397,-16.678 30.397,16.678 30.397,16.677 -30.397,16.678 -30.397,16.678 -30.397,-16.678 -30.398,-16.678 z m 61.578,-0.563 -30.397,-16.677 30.397,-16.678 30.398,-16.678 30.397,16.678 30.397,16.678 -30.397,16.677 -30.593,16.678 z m 61.579,0.563 30.398,-16.678 30.397,16.678 30.397,16.677 -30.397,16.678 -30.397,16.678 -30.398,-16.678 -30.397,-16.678 z m 61.579,-0.563 -30.397,-16.677 30.397,-16.678 30.397,-16.678 30.398,16.678 30.397,16.678 -30.397,16.677 -30.398,16.678 z m 61.579,0.563 30.397,-16.678 30.397,16.678 30.398,16.677 -30.398,16.678 -30.397,16.678 -30.397,-16.678 -30.397,-16.678 z m 61.579,-0.563 -30.397,-16.677 30.397,-16.678 30.397,-16.678 30.397,16.678 30.398,16.678 -30.398,16.677 -30.397,16.678 z m 0,-68.022 -30.397,-16.678 30.397,-16.678 30.397,-16.678 30.397,16.678 30.398,16.678 -30.398,16.678 -30.397,16.677 z m -0.981,0.562 30.398,16.678 -30.398,16.677 -30.397,16.678 -30.397,-16.678 -30.397,-16.677 30.397,-16.678 30.397,-16.678 z m -61.579,-0.562 -30.397,16.677 -30.397,-16.677 -30.397,-16.678 30.397,-16.678 30.397,-16.678 30.397,16.678 30.398,16.678 z m -61.578,0.562 30.397,16.678 -30.397,16.677 -30.398,16.678 -30.397,-16.678 -30.397,-16.677 30.397,-16.678 30.397,-16.678 z m -61.579,-0.562 -30.397,16.677 -30.398,-16.677 -30.397,-16.678 30.397,-16.678 30.398,-16.865 30.397,16.678 30.397,16.677 z m -61.579,0.562 30.397,16.678 -30.397,16.677 -30.397,16.678 -30.398,-16.678 -30.397,-16.677 30.397,-16.678 30.398,-16.678 z m -61.579,-0.562 -30.397,16.677 -30.397,-16.677 -30.398,-16.678 30.398,-16.678 30.397,-16.678 30.397,16.678 30.397,16.678 z m -61.579,0.562 30.397,16.678 -30.397,16.677 L 89.052,935.811 58.655,919.133 28.258,902.456 58.655,885.778 89.052,869.1 Z M 57.87,885.216 27.473,901.893 -2.924,885.216 -33.321,868.538 -2.924,851.86 27.473,835.182 57.87,851.86 88.268,868.538 Z m -61.775,0.562 30.398,16.678 -30.398,16.677 -30.397,16.678 -30.397,-16.678 -30.397,-16.677 30.397,-16.678 30.397,-16.678 z m -61.578,-0.562 -30.398,16.677 -30.397,-16.677 -30.397,-16.678 30.397,-16.678 30.397,-16.678 30.398,16.678 30.397,16.678 z m 0,34.479 30.397,16.678 -30.397,16.678 -30.398,16.678 -30.397,-16.678 -30.397,-16.678 30.397,-16.678 30.397,-16.677 z m 0,68.023 30.397,16.678 -30.397,16.678 -30.398,16.678 -30.397,-16.678 -30.397,-16.678 30.397,-16.678 30.397,-16.677 z m 0.98,33.918 30.397,-16.678 30.398,16.678 30.397,16.678 -30.397,16.676 -30.398,16.68 -30.397,-16.68 -30.397,-16.676 z m 61.775,-0.562 -30.397,-16.678 30.397,-16.678 30.397,-16.677 30.397,16.677 30.398,16.678 -30.398,16.678 -30.397,16.678 z m 61.579,0.562 30.397,-16.678 30.397,16.678 30.398,16.678 -30.398,16.676 -30.397,16.68 -30.397,-16.68 -30.397,-16.676 z m 61.579,-0.562 -30.397,-16.678 30.397,-16.678 30.397,-16.677 30.397,16.677 30.397,16.678 -30.397,16.678 -30.397,16.678 z m 61.579,0.562 30.397,-16.678 30.397,16.678 30.397,16.678 -30.397,16.676 -30.397,16.68 -30.397,-16.68 -30.398,-16.676 z m 61.578,-0.562 -30.397,-16.678 30.397,-16.678 30.398,-16.677 30.397,16.677 30.397,16.678 -30.397,16.678 -30.397,16.678 z m 61.579,0.562 30.398,-16.678 30.397,16.678 30.397,16.678 -30.397,16.676 -30.397,16.68 -30.398,-16.68 -30.397,-16.676 z m 61.579,-0.562 -30.397,-16.678 30.397,-16.678 30.397,-16.677 30.398,16.677 30.397,16.678 -30.397,16.678 -30.398,16.678 z m 61.579,0.562 30.397,-16.678 30.397,16.678 30.398,16.678 -30.398,16.676 -30.397,16.68 -30.397,-16.68 -30.397,-16.676 z m 61.579,-0.562 -30.397,-16.678 30.397,-16.678 30.397,-16.677 30.397,16.677 30.398,16.678 -30.398,16.678 -30.397,16.678 z m 61.579,0.562 30.397,-16.678 30.397,16.678 30.397,16.678 -30.397,16.676 -30.397,16.68 -30.397,-16.68 -30.397,-16.676 z m 0,-34.48 -30.397,-16.678 30.397,-16.677 30.397,-16.678 30.397,16.678 30.397,16.677 -30.397,16.678 -30.397,16.678 z m 0,-68.023 -30.397,-16.677 30.397,-16.678 30.397,-16.678 30.397,16.678 30.201,16.678 -30.397,16.677 -30.397,16.678 z m 0,-67.835 -30.397,-16.678 30.397,-16.678 30.397,-16.677 30.397,16.677 30.397,16.678 -30.397,16.678 -30.397,16.678 z m -0.981,-34.105 -30.397,16.678 -30.397,-16.678 -30.397,-16.678 30.397,-16.678 30.397,-16.678 30.397,16.678 30.397,16.678 z m -61.579,0.562 30.398,16.678 -30.398,16.677 -30.397,16.678 -30.397,-16.678 -30.397,-16.677 30.397,-16.678 30.397,-16.678 z m -61.579,-0.562 -30.397,16.678 -30.397,-16.678 -30.397,-16.678 30.397,-16.678 30.397,-16.678 30.397,16.678 30.398,16.678 z m -61.578,0.562 30.397,16.678 -30.397,16.677 -30.398,16.678 -30.397,-16.678 -30.397,-16.677 30.397,-16.678 30.397,-16.678 z m -61.579,-0.562 -30.397,16.678 -30.398,-16.678 -30.397,-16.678 30.397,-16.678 30.398,-16.678 30.397,16.678 30.397,16.678 z m -61.579,0.562 30.397,16.678 -30.397,16.677 -30.397,16.678 -30.398,-16.678 -30.397,-16.677 30.397,-16.678 30.398,-16.678 z m -61.579,-0.562 -30.397,16.678 -30.397,-16.678 -30.398,-16.678 30.398,-16.678 30.397,-16.678 30.397,16.678 30.397,16.678 z m -61.579,0.562 30.397,16.678 L 119.449,851.11 89.052,867.788 58.655,851.11 28.258,834.433 58.655,817.755 89.052,801.077 Z M 57.87,817.193 27.473,833.871 -2.924,817.193 -33.321,800.515 -2.924,783.837 27.473,767.159 57.87,783.837 88.268,800.515 Z m -61.775,0.562 30.398,16.678 -30.398,16.677 -30.397,16.678 -30.397,-16.678 -30.397,-16.677 30.397,-16.678 30.397,-16.678 z m -61.578,-0.562 -30.398,16.678 -30.397,-16.678 -30.397,-16.678 30.397,-16.678 30.397,-16.678 30.398,16.678 30.397,16.678 z m -61.579,0.562 30.397,16.678 -30.397,16.677 -30.398,16.678 -30.397,-16.678 -30.397,-16.677 30.397,-16.678 30.397,-16.678 z m 0,68.023 30.397,16.678 -30.397,16.677 -30.398,16.678 -30.397,-16.678 -30.005,-16.677 30.397,-16.678 30.398,-16.678 z m 0,68.023 30.397,16.677 -30.397,16.678 -30.398,16.678 -30.397,-16.678 -30.397,-16.678 30.397,-16.677 30.397,-16.678 z m 0,67.835 30.397,16.678 -30.397,16.676 -30.398,16.68 -30.397,-16.68 -30.397,-16.676 30.397,-16.678 30.397,-16.678 z m 0,68.024 30.397,16.68 -30.397,16.67 -30.398,16.68 -30.397,-16.68 -30.397,-16.67 30.397,-16.68 30.397,-16.68 z m 0.98,-0.56 -30.397,-16.68 30.397,-16.68 30.397,-16.677 30.398,16.677 30.397,16.68 -30.397,16.68 -30.398,16.67 z m 61.579,0.56 30.397,-16.68 30.398,16.68 30.397,16.68 -30.397,16.67 -30.398,16.68 -30.397,-16.68 -30.397,-16.67 z m 61.775,-0.56 -30.397,-16.68 30.397,-16.68 30.397,-16.677 30.397,16.677 30.398,16.68 -30.398,16.68 -30.397,16.67 z m 61.579,0.56 30.397,-16.68 30.397,16.68 30.398,16.68 -30.398,16.67 -30.397,16.68 -30.397,-16.68 -30.397,-16.67 z m 61.579,-0.56 -30.397,-16.68 30.397,-16.68 30.397,-16.677 30.397,16.677 30.397,16.68 -30.397,16.68 -30.397,16.67 z m 61.579,0.56 30.397,-16.68 30.397,16.68 30.397,16.68 -30.397,16.67 -30.397,16.68 -30.397,-16.68 -30.398,-16.67 z m 61.578,-0.56 -30.397,-16.68 30.397,-16.68 30.398,-16.677 30.397,16.677 30.397,16.68 -30.397,16.68 -30.397,16.67 z m 61.579,0.56 30.398,-16.68 30.397,16.68 30.397,16.68 -30.397,16.67 -30.397,16.68 -30.398,-16.68 -30.397,-16.67 z m 61.579,-0.56 -30.397,-16.68 30.397,-16.68 30.397,-16.677 30.398,16.677 30.397,16.68 -30.397,16.68 -30.398,16.67 z m 61.579,0.56 30.397,-16.68 30.397,16.68 30.398,16.68 -30.398,16.67 -30.397,16.68 -30.397,-16.68 -30.397,-16.67 z m 61.579,-0.56 -30.397,-16.68 30.397,-16.68 30.397,-16.677 30.397,16.677 30.398,16.68 -30.398,16.68 -30.397,16.67 z m 61.579,0.56 30.397,-16.68 30.397,16.68 30.397,16.68 -30.397,16.67 -30.397,16.68 -30.397,-16.68 -30.397,-16.67 z m 61.579,-0.56 -30.398,-16.68 30.398,-16.68 30.397,-16.677 30.402,16.677 30.39,16.68 -30.39,16.68 -30.402,16.67 z m 0,-68.026 -30.398,-16.678 30.398,-16.678 30.397,-16.677 30.402,16.677 30.39,16.678 -30.39,16.678 -30.402,16.678 z m 0,-67.836 -30.398,-16.677 30.398,-16.678 30.397,-16.678 30.402,16.678 30.39,16.678 -30.39,16.677 -30.402,16.678 z m 0,-68.022 -30.398,-16.678 30.398,-16.678 30.397,-16.678 30.402,16.678 30.39,16.678 -30.39,16.678 -30.402,16.677 z m 0,-68.023 -30.398,-16.678 30.398,-16.678 30.397,-16.678 30.402,16.678 30.39,16.678 -30.39,16.678 -30.402,16.678 z m 0,-67.836 -30.398,-16.677 30.398,-16.678 30.397,-16.678 30.402,16.678 30.39,16.678 -30.39,16.677 -30.402,16.678 z m -0.981,0.563 30.397,16.677 -30.397,16.678 -30.397,16.678 -30.397,-16.678 -30.398,-16.678 30.398,-16.677 30.397,-16.678 z m -61.579,-0.563 -30.397,16.678 -30.397,-16.678 -30.397,-16.677 30.397,-16.678 30.397,-16.678 30.397,16.678 30.397,16.678 z m -61.579,0.563 30.398,16.677 -30.398,16.678 -30.397,16.678 -30.397,-16.678 -30.397,-16.678 30.397,-16.677 30.397,-16.678 z m -61.579,-0.563 -30.397,16.678 -30.397,-16.678 -30.397,-16.677 30.397,-16.678 30.397,-16.678 30.397,16.678 30.398,16.678 z m -61.578,0.563 30.397,16.677 -30.397,16.678 -30.398,16.678 -30.201,-16.678 -30.397,-16.678 30.397,-16.677 30.398,-16.678 z m -61.579,-0.563 -30.397,16.678 -30.398,-16.678 -30.397,-16.677 30.397,-16.678 30.398,-16.678 30.397,16.678 30.397,16.678 z m -61.579,0.563 30.397,16.677 -30.397,16.678 -30.397,16.678 -30.398,-16.678 -30.397,-16.678 30.397,-16.677 30.398,-16.678 z m -61.579,-0.563 -30.397,16.678 -30.397,-16.678 -30.398,-16.677 30.398,-16.678 30.397,-16.678 30.397,16.678 30.397,16.678 z m -61.579,0.563 30.397,16.677 -30.397,16.678 L 89.052,799.953 58.655,783.275 28.258,766.597 58.655,749.92 89.052,733.242 Z M 57.87,749.357 27.473,766.035 -2.924,749.357 -33.321,732.68 -2.924,716.002 27.473,699.324 57.87,716.002 88.268,732.68 Z m -61.775,0.563 30.398,16.677 -30.398,16.678 -30.397,16.678 -30.397,-16.678 -30.397,-16.678 30.397,-16.677 30.397,-16.678 z m -61.578,-0.563 -30.398,16.678 -30.397,-16.678 -30.397,-16.677 30.397,-16.678 30.397,-16.678 30.398,16.678 30.397,16.678 z m -61.579,0.563 30.397,16.677 -30.397,16.678 -30.398,16.678 -30.397,-16.678 -30.397,-16.678 30.397,-16.677 30.397,-16.678 z m -61.579,-0.563 -30.397,16.678 -30.3976,-16.678 -30.3972,-16.677 30.3972,-16.678 30.3976,-16.678 30.397,16.678 30.397,16.678 z m 0,34.48 30.397,16.678 -30.397,16.678 -30.397,16.678 -30.3976,-16.678 -30.3972,-16.678 30.3972,-16.678 30.3976,-16.678 z m 0,68.023 30.397,16.678 -30.397,16.678 -30.397,16.677 -30.3976,-16.677 -30.3972,-16.678 30.3972,-16.678 30.3976,-16.678 z m 0,67.835 30.397,16.678 -30.397,16.678 -30.201,16.865 -30.3975,-16.678 -30.3972,-16.677 30.3972,-16.678 30.3975,-16.678 z m 0,68.023 30.397,16.678 -30.397,16.678 -30.397,16.678 -30.3976,-16.678 -30.3972,-16.678 30.3972,-16.678 30.3976,-16.677 z m 0,68.022 30.397,16.68 -30.397,16.68 -30.397,16.67 -30.3976,-16.67 -30.3972,-16.68 30.3972,-16.68 30.3976,-16.677 z m 0,67.84 30.397,16.67 -30.397,16.68 -30.397,16.68 -30.3976,-16.68 -30.3972,-16.68 30.3972,-16.67 30.3976,-16.68 z m 0.98,34.1 30.398,-16.68 30.397,16.68 30.397,16.68 -30.397,16.68 -30.397,16.67 -30.398,-16.67 -30.397,-16.68 z m 61.579,-0.56 -30.397,-16.68 30.397,-16.68 30.397,-16.67 30.202,16.49 30.397,16.67 -30.397,16.68 -30.398,16.68 z m 61.579,0.56 30.397,-16.68 30.398,16.68 30.397,16.68 -30.397,16.68 -30.398,16.67 -30.397,-16.67 -30.397,-16.68 z m 61.775,-0.56 -30.397,-16.68 30.397,-16.86 30.397,-16.68 30.397,16.68 30.398,16.67 -30.398,16.68 -30.397,16.68 z m 61.579,0.56 30.397,-16.68 30.397,16.68 30.398,16.68 -30.398,16.68 -30.397,16.67 -30.397,-16.67 -30.397,-16.68 z m 61.579,-0.56 -30.397,-16.68 30.397,-16.68 30.397,-16.67 30.397,16.67 30.397,16.68 -30.397,16.68 -30.397,16.68 z m 61.579,0.56 30.397,-16.68 30.397,16.68 30.397,16.68 -30.397,16.68 -30.397,16.67 -30.397,-16.67 -30.398,-16.68 z m 61.578,-0.56 -30.397,-16.68 30.397,-16.68 30.398,-16.67 30.397,16.67 30.397,16.68 -30.397,16.68 -30.397,16.68 z m 61.579,0.56 30.398,-16.68 30.397,16.68 30.397,16.68 -30.397,16.68 -30.397,16.67 -30.398,-16.67 -30.397,-16.68 z m 61.579,-0.56 -30.397,-16.68 30.397,-16.68 30.397,-16.67 30.398,16.67 30.397,16.68 -30.397,16.68 -30.398,16.68 z m 61.579,0.56 30.397,-16.68 30.397,16.68 30.398,16.68 -30.398,16.68 -30.397,16.67 -30.397,-16.67 -30.397,-16.68 z m 61.579,-0.56 -30.397,-16.68 30.397,-16.68 30.397,-16.67 30.397,16.67 30.398,16.68 -30.398,16.68 -30.397,16.68 z m 61.579,0.56 30.397,-16.68 30.397,16.68 30.397,16.68 -30.397,16.68 -30.397,16.67 -30.397,-16.67 -30.397,-16.68 z m 61.579,-0.56 -30.398,-16.68 30.398,-16.86 30.397,-16.68 30.402,16.68 30.39,16.67 -30.39,16.68 -30.402,16.68 z m 61.579,0.56 30.4,-16.68 30.39,16.68 30.4,16.68 -30.4,16.68 -30.39,16.67 -30.4,-16.67 -30.398,-16.68 z m 0,-34.67 -30.398,-16.67 30.398,-16.68 30.4,-16.68 30.39,16.68 30.4,16.68 -30.4,16.67 -30.39,16.68 z m 0,-67.83 -30.398,-16.679 30.398,-16.678 30.4,-16.677 30.39,16.677 30.4,16.678 -30.4,16.679 -30.39,16.68 z m 0,-68.024 -30.398,-16.678 30.398,-16.677 30.4,-16.678 30.39,16.678 30.4,16.677 -30.4,16.678 -30.39,16.678 z m 0,-68.023 -30.202,-16.677 30.402,-16.678 30.39,-16.678 30.4,16.678 30.4,16.678 -30.4,16.677 -30.4,16.678 z m 0,-67.835 -30.398,-16.678 30.398,-16.678 30.4,-16.677 30.39,16.677 30.4,16.678 -30.4,16.678 -30.39,16.678 z m 0,-68.023 -30.202,-16.678 30.402,-16.677 30.39,-16.678 30.4,16.678 30.4,16.677 -30.4,16.678 -30.4,16.678 z m -61.579,-135.296 30.397,-16.678 30.402,16.678 30.39,16.678 -30.59,16.678 -30.398,16.677 -30.201,-16.677 -30.398,-16.678 z m -0.981,33.918 30.397,16.677 -30.397,16.678 -30.397,16.678 -30.397,-16.678 -30.398,-16.678 30.398,-16.677 30.397,-16.678 z m -122.177,-33.918 30.397,-16.678 30.397,16.678 30.398,16.678 -30.594,16.678 -30.397,16.677 -30.201,-16.677 -30.397,-16.678 z m -0.981,33.918 30.398,16.677 -30.398,16.678 -30.397,16.678 -30.397,-16.678 -30.397,-16.678 30.397,-16.677 30.397,-16.678 z m -122.177,-33.918 30.397,-16.678 30.398,16.678 30.397,16.678 -30.594,16.678 -30.397,16.677 -30.201,-16.677 -30.397,-16.678 z m -0.98,33.918 30.397,16.677 -30.397,16.678 -30.398,16.678 -30.201,-16.678 -30.397,-16.678 30.397,-16.677 30.398,-16.678 z m -122.178,-33.918 30.398,-16.678 30.397,16.678 30.397,16.678 -30.593,16.678 -30.397,16.677 -30.202,-16.677 -30.397,-16.678 z m -0.98,33.918 30.397,16.677 -30.397,16.678 -30.397,16.678 -30.398,-16.678 -30.397,-16.678 30.397,-16.677 30.398,-16.678 z m -122.177,-33.918 30.397,-16.678 30.397,16.678 30.397,16.678 -30.593,16.678 -30.397,16.677 -30.201,-16.677 -30.397,-16.678 z m -0.981,33.918 30.397,16.677 -30.397,16.678 L 89.052,731.93 58.655,715.252 28.258,698.574 58.655,681.897 89.052,665.219 Z M -2.924,647.979 27.473,631.301 57.87,647.979 88.268,664.657 57.87,681.335 27.473,698.012 -2.924,681.335 -33.321,664.657 Z m -0.981,33.918 30.398,16.677 -30.398,16.678 -30.201,16.865 -30.397,-16.677 -30.397,-16.678 30.397,-16.678 30.397,-16.678 z m -122.177,-33.918 30.397,-16.678 30.398,16.678 30.397,16.678 -30.593,16.678 -30.398,16.677 -30.201,-16.677 -30.397,-16.678 z m -0.98,33.918 30.397,16.677 -30.397,16.678 -30.398,16.678 -30.397,-16.678 -30.397,-16.678 30.397,-16.677 30.397,-16.678 z m -122.1775,-33.918 30.3975,-16.678 30.397,16.678 30.397,16.678 -30.593,16.678 -30.397,16.677 -30.2015,-16.677 -30.3972,-16.678 z m -61.5788,67.273 -30.20114,-16.678 30.39724,-16.677 30.3972,-16.678 30.3972,16.678 30.3968,16.677 -30.3968,16.678 -30.3972,16.678 z m 0,68.023 -30.20114,-16.678 30.39724,-16.677 30.3972,-16.678 30.3972,16.678 30.3968,16.677 -30.3968,16.678 -30.3972,16.678 z m 0,68.023 -30.39726,-16.678 30.39726,-16.678 30.3972,-16.677 30.3972,16.677 30.3969,16.678 -30.3969,16.678 -30.3972,16.678 z m 0,67.835 -30.20114,-16.677 30.39724,-16.678 30.3972,-16.678 30.3972,16.678 30.3968,16.678 -30.3968,16.677 -30.3972,16.678 z m 0,68.023 -30.39726,-16.678 30.39726,-16.677 30.3972,-16.678 30.3972,16.678 30.3969,16.677 -30.3969,16.678 -30.3972,16.678 z m 0,68.024 -30.39726,-16.679 30.39726,-16.678 30.3972,-16.677 30.3972,16.677 30.3969,16.678 -30.3969,16.679 -30.3972,16.68 z m 0,67.83 -30.39726,-16.67 30.39726,-16.68 30.3972,-16.68 30.3972,16.68 30.3969,16.68 -30.3969,16.67 -30.3972,16.68 z m 0,68.03 -30.39726,-16.68 30.39726,-16.68 30.3972,-16.68 30.3972,16.68 30.3969,16.68 -30.593,16.68 -30.3973,16.67 z m 60.5983,68.02 -30.3973,16.68 -30.3972,-16.68 -30.39717,-16.68 30.39717,-16.68 30.3972,-16.67 30.3973,16.67 30.397,16.68 z m 0.9805,-34.11 -30.3972,-16.67 30.3972,-16.68 30.3975,-16.68 30.397,16.68 30.397,16.68 -30.397,16.67 -30.397,16.68 z m 122.1775,34.11 -30.398,16.68 -30.397,-16.68 -30.397,-16.68 30.397,-16.68 30.397,-16.67 30.398,16.67 30.397,16.68 z m 0.98,-34.11 -30.397,-16.67 30.397,-16.68 30.397,-16.68 30.398,16.68 30.397,16.68 -30.397,16.67 -30.398,16.68 z m 122.374,34.11 -30.398,16.68 -30.397,-16.68 -30.397,-16.68 30.397,-16.68 30.397,-16.67 30.398,16.67 30.397,16.68 z m 0.98,-34.11 -30.397,-16.67 30.397,-16.68 30.397,-16.68 30.397,16.68 30.398,16.68 -30.398,16.67 -30.397,16.68 z m 122.177,34.11 -30.397,16.68 -30.397,-16.68 -30.397,-16.68 30.397,-16.68 30.397,-16.67 30.397,16.67 30.397,16.68 z m 0.981,-34.11 -30.397,-16.67 30.397,-16.68 30.397,-16.68 30.397,16.68 30.397,16.68 -30.397,16.67 -30.397,16.68 z m 122.177,34.11 -30.397,16.68 -30.398,-16.68 -30.397,-16.68 30.397,-16.68 30.398,-16.67 30.397,16.67 30.397,16.68 z m 0.98,-34.11 -30.397,-16.67 30.397,-16.68 30.398,-16.68 30.397,16.68 30.397,16.68 -30.397,16.67 -30.397,16.68 z m 122.178,34.11 -30.398,16.68 -30.397,-16.68 -30.397,-16.68 30.397,-16.68 30.397,-16.67 30.398,16.67 30.397,16.68 z m 0.98,-34.11 -30.397,-16.67 30.397,-16.68 30.397,-16.68 30.398,16.68 30.397,16.68 -30.397,16.67 -30.398,16.68 z m 122.177,34.11 -30.397,16.68 -30.397,-16.68 -30.397,-16.68 30.397,-16.68 30.397,-16.67 30.397,16.67 30.398,16.68 z m 0.981,-34.11 -30.397,-16.67 30.397,-16.68 30.397,-16.68 30.397,16.68 30.398,16.68 -30.398,16.67 -30.397,16.68 z m 122.177,34.11 -30.397,16.68 -30.397,-16.68 -30.398,-16.68 30.398,-16.68 30.397,-16.67 30.397,16.67 30.397,16.68 z m 0.981,-34.11 -30.398,-16.67 30.398,-16.68 30.397,-16.68 30.402,16.68 30.39,16.68 -30.39,16.67 -30.402,16.68 z m 122.179,34.11 -30.4,16.68 -30.4,-16.68 -30.394,-16.68 30.394,-16.68 30.4,-16.67 30.4,16.67 30.4,16.68 z m 61.77,-67.46 30.4,16.68 -30.4,16.67 -30.39,16.68 -30.4,-16.68 -30.4,-16.67 30.4,-16.68 30.4,-16.68 z m -0.19,-68.02 30.39,16.67 -30.39,16.68 -30.4,16.68 -30.4,-16.68 -30.4,-16.68 30.4,-16.67 30.4,-16.68 z m 0,-67.84 30.39,16.68 -30.39,16.68 -30.4,16.67 -30.4,-16.67 -30.4,-16.68 30.4,-16.68 30.4,-16.677 z m 0,-68.022 30.39,16.678 -30.39,16.678 -30.4,16.678 -30.4,-16.678 -30.4,-16.678 30.4,-16.678 30.4,-16.677 z m 0,-68.023 30.39,16.678 -30.39,16.678 -30.4,16.678 -30.4,-16.678 -30.4,-16.678 30.4,-16.678 30.4,-16.677 z m 0,-67.835 30.39,16.678 -30.39,16.678 -30.4,16.677 -30.4,-16.677 -30.4,-16.678 30.4,-16.678 30.4,-16.678 z m 0,-68.023 30.39,16.678 -30.39,16.678 -30.4,16.678 -30.4,-16.678 -30.4,-16.678 30.4,-16.678 30.4,-16.678 z m 0,-68.023 30.39,16.678 -30.39,16.678 -30.4,16.678 -30.4,-16.678 -30.4,-16.678 30.4,-16.678 30.4,-16.677 z m 0,-34.479 -30.4,16.677 -30.2,-16.677 -30.4,-16.678 30.4,-16.678 30.4,-16.678 30.39,16.678 30.4,16.678 z"
     fill="url(#paint0_radial_46_394)"
     fill-opacity="0.9"
     id="path2"
     style="fill:url(#paint0_radial_46_394)" />
  <path
     opacity="0.1"
     d="M 797.8,36.07992 767.6,19.4022 797.8,2.537 801.33,0.6631 h -1.96 l -2.55,1.3117 -30.4,16.6778 -30.4,-16.6778 -2.35,-1.3117 h -1.96 l 3.53,1.8739 30.4,16.6778 -30.4,16.67773 L 704.84,52.5703 674.44,35.89253 644.438,19.4022 674.64,2.537 678.17,0.6631 h -1.96 L 673.66,1.9748 643.262,18.6526 613.061,1.9748 610.511,0.6631 H 608.55 L 612.08,2.537 642.477,19.4022 612.08,36.07992 581.683,52.7577 551.286,36.07992 521.281,19.4022 551.482,2.537 l 3.53,-1.8739 h -1.961 l -2.55,1.3117 -30.397,16.6778 -30.397,-16.6778 -2.354,-1.3117 h -1.961 L 488.922,2.537 519.32,19.2148 488.922,35.89253 458.525,52.5703 428.128,35.89253 397.927,19.4022 428.324,2.537 l 3.53,-1.8739 h -1.961 l -2.55,1.3117 -30.397,16.6778 -30.397,-16.6778 -2.353,-1.3117 h -1.961 l 3.53,1.8739 30.397,16.6778 L 365.765,35.89253 335.367,52.5703 305.166,36.07992 274.769,19.4022 305.166,2.537 l 3.53,-1.8739 h -1.961 L 304.186,1.9748 273.789,18.84 243.391,2.1622 241.038,0.6631 h -1.961 l 3.53,1.8739 30.397,16.6778 L 242.607,35.89253 212.21,52.5703 181.812,35.89253 151.611,19.4022 182.009,2.537 l 3.53,-1.8739 h -1.961 L 181.028,1.9748 150.631,18.6526 120.234,1.9748 117.88,0.6631 h -1.961 l 3.53,1.8739 30.397,16.6778 L 119.449,35.89253 89.052,52.5703 58.655,35.89253 28.454,19.4022 58.851,2.537 62.381,0.6631 H 60.42 L 57.87,1.9748 27.473,18.6526 -2.924,1.9748 -5.277,0.6631 H -7.238 L -3.708,2.537 26.689,19.2148 -3.708,35.89253 -34.106,52.7577 -64.503,36.07992 -94.9,19.4022 -64.503,2.537 l 3.53,-1.8739 h -1.961 l -2.549,1.3117 -30.398,16.6778 -30.397,-16.6778 -2.157,-1.3117 h -1.961 l 3.53,1.8739 30.397,16.6778 -30.397,16.67773 -30.397,16.67777 -30.398,-16.67777 -30.201,-16.67773 30.201,-16.6778 3.53,-1.8739 h -1.961 l -2.549,1.3117 -30.201,16.8652 -30.3975,-16.8652 -2.5494,-1.3117 h -1.9611 l 3.53,1.8739 30.397,16.6778 -30.397,16.67773 -30.3973,16.67777 -30.3972,-16.67777 -30.00495,-16.67773 30.20115,-16.6778 3.53,-1.8739 h -1.9612 L -311.7989,1.9748 -342,18.6526 v 1.1243 l 30.2011,16.6778 30.3972,16.6778 -30.3972,16.8651 L -342,86.6754 v 1.1244 l 30.2011,16.6777 30.3972,16.6778 -30.3972,16.6778 L -342,154.698 v 1.125 l 30.2011,16.677 30.3972,16.678 -30.3972,16.678 L -342,222.534 v 1.124 l 30.2011,16.678 30.3972,16.678 -30.3972,16.677 L -342,290.556 v 1.125 l 30.2011,16.678 30.3972,16.677 -30.3972,16.678 L -342,358.579 v 1.125 l 30.2011,16.677 30.3972,16.678 -30.3972,16.678 L -342,426.415 v 1.124 l 30.2011,16.678 30.3972,16.678 -30.3972,16.677 L -342,494.438 v 1.124 l 30.2011,16.678 30.3972,16.677 -30.3972,16.678 L -342,562.46 v 1.125 l 30.2011,16.677 30.3972,16.678 -30.3972,16.678 L -342,630.296 v 1.124 l 30.2011,16.678 30.3972,16.678 -20.0033,11.056 h 1.9611 l 19.0228,-10.494 19.0227,10.494 h 1.9611 l -20.0033,-11.056 30.3972,-16.678 30.3974,-16.678 30.397,16.678 30.397,16.678 -20.003,11.056 h 1.961 l 19.023,-10.494 19.023,10.494 h 1.961 l -20.004,-11.056 30.398,-16.678 30.397,-16.678 30.397,16.678 30.397,16.678 -20.003,11.056 h 1.961 l 19.023,-10.494 19.023,10.494 h 1.961 l -20.004,-11.056 30.397,-16.678 30.398,-16.678 30.397,16.678 30.397,16.678 -20.003,11.056 h 1.961 l 19.023,-10.494 19.022,10.494 h 1.962 l -20.004,-11.056 30.397,-16.678 30.398,-16.678 30.397,16.678 30.397,16.678 -20.003,11.056 h 1.961 l 19.023,-10.494 19.022,10.494 h 1.962 l -20.004,-11.056 30.397,-16.678 30.398,-16.678 30.397,16.678 30.397,16.678 -20.003,11.056 h 1.961 l 19.023,-10.494 19.022,10.494 h 1.961 l -20.003,-11.056 30.397,-16.678 30.398,-16.678 30.397,16.678 30.397,16.678 -20.003,11.056 h 1.961 l 19.022,-10.494 19.023,10.494 h 1.961 l -20.003,-11.056 30.397,-16.678 30.397,-16.678 30.398,16.678 30.397,16.678 -20.003,11.056 h 1.961 l 19.022,-10.494 19.023,10.494 h 1.961 l -20.003,-11.056 30.397,-16.678 30.397,-16.678 30.397,16.678 30.4,16.678 -20.01,11.056 h 1.97 l 19.02,-10.494 19.02,10.494 h 1.96 l -20,-11.056 30.4,-16.678 30.39,-16.678 30.4,16.678 30.4,16.678 -20.01,11.056 h 1.97 l 19.02,-10.494 6.47,3.56 v -1.124 l -5.49,-2.998 5.49,-2.999 v -1.124 l -6.47,3.561 -30.4,-16.678 -30.4,-16.678 30.4,-16.678 30.4,-16.678 6.47,3.561 v -1.125 l -5.49,-2.998 5.49,-2.998 v -1.124 l -6.47,3.56 -30.4,-16.678 -30.4,-16.677 30.4,-16.678 30.4,-16.678 6.47,3.56 v -1.124 l -5.49,-2.998 5.49,-2.998 v -1.125 l -6.47,3.561 -30.4,-16.678 -30.4,-16.678 30.4,-16.678 30.4,-16.677 6.47,3.56 v -1.124 l -5.49,-2.999 5.49,-2.998 v -1.124 l -6.47,3.56 -30.4,-16.678 -30.4,-16.677 30.4,-16.678 30.4,-16.678 6.47,3.561 v -1.5 l -5.49,-2.998 5.49,-2.998 v -1.124 l -6.47,3.56 -30.4,-16.678 -30.4,-16.678 30.4,-16.677 30.4,-16.678 6.47,3.56 v -1.124 l -5.49,-2.998 5.49,-2.999 v -1.124 l -6.47,3.561 -30.4,-16.678 -30.4,-16.678 30.4,-16.678 30.4,-16.677 6.47,3.56 v -1.124 l -5.49,-2.999 5.49,-2.998 v -1.124 l -6.47,3.56 -30.4,-16.678 -30.4,-16.677 30.4,-16.678 30.4,-16.678 6.47,3.56 v -1.124 l -5.49,-2.998 2.16,-3.373 v -1.124 l -6.48,3.56 -30.39,-16.678 -30.4,-16.678 30.4,-16.6774 30.39,-16.6778 6.48,3.5605 v -1.1244 l -5.5,-2.9982 5.5,-2.9983 v -1.1243 l -6.48,3.5604 -30.39,-16.6778 -30.4,-16.6777 30.4,-16.6778 30.39,-16.6778 6.48,3.5604 v -1.1243 l -5.5,-2.9982 5.5,-2.99829 v -1.12435 l -6.48,3.56044 z m -62.56,34.47988 30.4,16.6778 -30.4,16.6777 -30.4,16.6778 -30.4,-16.6778 L 644.438,87.2376 674.84,70.5598 705.23,53.882 Z M -2.728,341.902 l -30.397,-16.678 30.397,-16.678 30.397,-16.678 30.397,16.678 30.398,16.678 -30.398,16.678 -30.397,16.677 z m 29.221,17.239 -30.398,16.678 -30.397,16.678 -30.397,-16.678 -30.397,-16.678 30.397,-16.677 30.397,-16.678 30.397,16.678 z m 32.358,-16.677 30.397,-16.678 30.397,16.678 30.398,16.677 -30.398,16.678 -30.397,16.678 -30.397,-16.678 -30.397,-16.678 z m 61.579,-0.562 -30.397,-16.678 30.397,-16.678 30.397,-16.678 30.397,16.678 30.397,16.678 -30.397,16.678 -30.397,16.677 z m 61.579,0.562 30.397,-16.678 30.397,16.678 30.397,16.677 -30.397,16.678 -30.397,16.678 -30.397,-16.678 -30.398,-16.678 z m 61.578,-0.562 -30.397,-16.678 30.397,-16.678 30.398,-16.678 30.397,16.678 30.397,16.678 -30.397,16.678 -30.593,16.677 z m 61.579,0.562 30.398,-16.678 30.397,16.678 30.397,16.677 -30.397,16.678 -30.397,16.678 -30.398,-16.678 -30.397,-16.678 z m 61.579,-0.562 -30.397,-16.678 30.397,-16.678 30.397,-16.678 30.398,16.678 30.397,16.678 -30.397,16.678 -30.398,16.677 z m 61.579,0.562 30.397,-16.678 30.397,16.678 30.398,16.677 -30.398,16.678 -30.397,16.678 -30.397,-16.678 -30.397,-16.678 z m 61.579,-0.562 -30.397,-16.678 30.397,-16.678 30.397,-16.678 30.397,16.678 30.398,16.678 -30.398,16.678 -30.397,16.677 z m 0,-68.023 -30.397,-16.678 30.397,-16.678 30.397,-16.678 30.397,16.678 30.398,16.678 -30.398,16.678 -30.397,16.677 z m -0.981,0.562 30.398,16.678 -30.398,16.677 -30.397,16.678 -30.397,-16.678 -30.397,-16.677 30.397,-16.678 30.397,-16.678 z m -61.579,-0.562 -30.397,16.677 -30.397,-16.677 -30.397,-16.678 30.397,-16.678 30.397,-16.678 30.397,16.678 30.398,16.678 z m -61.578,0.562 30.397,16.678 -30.397,16.677 -30.398,16.678 -30.397,-16.678 -30.397,-16.677 30.397,-16.678 30.397,-16.678 z m -61.579,-0.562 -30.397,16.677 -30.398,-16.677 -30.397,-16.678 30.397,-16.678 30.398,-16.865 30.397,16.678 30.397,16.678 z m -61.579,0.562 30.397,16.678 -30.397,16.677 -30.397,16.678 -30.398,-16.678 -30.397,-16.677 30.397,-16.678 30.398,-16.678 z m -61.579,-0.562 -30.397,16.677 -30.397,-16.677 -30.398,-16.678 30.398,-16.678 30.397,-16.678 30.397,16.678 30.397,16.678 z m -61.579,0.562 30.397,16.678 -30.397,16.677 L 89.052,324.474 58.655,307.796 28.258,291.119 58.655,274.441 89.052,257.763 Z M 57.87,273.879 27.473,290.556 -2.924,273.879 -33.321,257.201 -2.924,240.523 27.473,223.845 57.87,240.523 88.268,257.201 Z m -61.775,0.562 30.398,16.678 -30.398,16.677 -30.397,16.678 -30.397,-16.678 -30.397,-16.677 30.397,-16.678 30.397,-16.678 z m -61.578,-0.562 -30.398,16.677 -30.397,-16.677 -30.397,-16.678 30.397,-16.678 30.397,-16.678 30.398,16.678 30.397,16.678 z m 0,34.48 30.397,16.677 -30.397,16.678 -30.398,16.678 -30.397,-16.678 -30.397,-16.678 30.397,-16.677 30.397,-16.678 z m 0,68.022 30.397,16.678 -30.397,16.678 -30.398,16.678 -30.397,-16.678 -30.397,-16.678 30.397,-16.678 30.397,-16.677 z m 0.98,33.918 30.397,-16.678 30.398,16.678 30.397,16.678 -30.397,16.678 -30.398,16.677 -30.397,-16.677 -30.397,-16.678 z m 61.775,-0.562 -30.397,-16.678 30.397,-16.678 30.397,-16.677 30.397,16.677 30.398,16.678 -30.398,16.678 -30.397,16.678 z m 61.579,0.562 30.397,-16.678 30.397,16.678 30.398,16.678 -30.398,16.678 -30.397,16.677 -30.397,-16.677 -30.397,-16.678 z m 61.579,-0.562 -30.397,-16.678 30.397,-16.678 30.397,-16.677 30.397,16.677 30.397,16.678 -30.397,16.678 -30.397,16.678 z m 61.579,0.562 30.397,-16.678 30.397,16.678 30.397,16.678 -30.397,16.678 -30.397,16.677 -30.397,-16.677 -30.398,-16.678 z m 61.578,-0.562 -30.397,-16.678 30.397,-16.678 30.398,-16.677 30.397,16.677 30.397,16.678 -30.397,16.678 -30.397,16.678 z m 61.579,0.562 30.398,-16.678 30.397,16.678 30.397,16.678 -30.397,16.678 -30.397,16.677 -30.398,-16.677 -30.397,-16.678 z m 61.579,-0.562 -30.397,-16.678 30.397,-16.678 30.397,-16.677 30.398,16.677 30.397,16.678 -30.397,16.678 -30.398,16.678 z m 61.579,0.562 30.397,-16.678 30.397,16.678 30.398,16.678 -30.398,16.678 -30.397,16.677 -30.397,-16.677 -30.397,-16.678 z m 61.579,-0.562 -30.397,-16.678 30.397,-16.678 30.397,-16.677 30.397,16.677 30.398,16.678 -30.398,16.678 -30.397,16.678 z m 61.579,0.562 30.397,-16.678 30.397,16.678 30.397,16.678 -30.397,16.678 -30.397,16.677 -30.397,-16.677 -30.397,-16.678 z m 0,-34.48 -30.397,-16.678 30.397,-16.677 30.397,-16.678 30.397,16.678 30.397,16.677 -30.397,16.678 -30.397,16.678 z m 0,-68.023 -30.397,-16.677 30.397,-16.678 30.397,-16.678 30.397,16.678 30.201,16.678 -30.397,16.677 -30.397,16.678 z m 0,-67.835 -30.397,-16.678 30.397,-16.678 30.397,-16.677 30.397,16.677 30.397,16.678 -30.397,16.678 -30.397,16.678 z m -0.981,-34.105 -30.397,16.678 -30.397,-16.678 -30.397,-16.678 30.397,-16.678 30.397,-16.677 30.397,16.677 30.397,16.678 z m -61.579,0.562 30.398,16.678 -30.398,16.678 -30.397,16.677 -30.397,-16.677 -30.397,-16.678 30.397,-16.678 30.397,-16.678 z m -61.579,-0.562 -30.397,16.678 -30.397,-16.678 -30.397,-16.678 30.397,-16.678 30.397,-16.677 30.397,16.677 30.398,16.678 z m -61.578,0.562 30.397,16.678 -30.397,16.678 -30.398,16.677 -30.397,-16.677 -30.397,-16.678 30.397,-16.678 30.397,-16.678 z m -61.579,-0.562 -30.397,16.678 -30.398,-16.678 -30.397,-16.678 30.397,-16.678 30.398,-16.677 30.397,16.677 30.397,16.678 z m -61.579,0.562 30.397,16.678 -30.397,16.678 -30.397,16.677 -30.398,-16.677 -30.397,-16.678 30.397,-16.678 30.398,-16.678 z m -61.579,-0.562 -30.397,16.678 -30.397,-16.678 -30.398,-16.678 30.398,-16.678 30.397,-16.677 30.397,16.677 30.397,16.678 z m -61.579,0.562 30.397,16.678 -30.397,16.678 L 89.052,256.451 58.655,239.774 28.258,223.096 58.655,206.418 89.052,189.74 Z M 57.87,205.856 27.473,222.534 -2.924,205.856 -33.321,189.178 -2.924,172.5 27.473,155.823 57.87,172.5 88.268,189.178 Z m -61.775,0.562 30.398,16.678 -30.398,16.678 -30.397,16.677 -30.397,-16.677 -30.397,-16.678 30.397,-16.678 30.397,-16.678 z m -61.578,-0.562 -30.398,16.678 -30.397,-16.678 -30.397,-16.678 30.397,-16.678 30.397,-16.677 30.398,16.677 30.397,16.678 z m -61.579,0.562 30.397,16.678 -30.397,16.678 -30.398,16.677 -30.397,-16.677 -30.397,-16.678 30.397,-16.678 30.397,-16.678 z m 0,68.023 30.397,16.678 -30.397,16.677 -30.398,16.678 -30.397,-16.678 -30.005,-16.677 30.397,-16.678 30.398,-16.678 z m 0,68.023 30.397,16.677 -30.397,16.678 -30.398,16.678 -30.397,-16.678 -30.397,-16.678 30.397,-16.677 30.397,-16.678 z m 0,67.835 30.397,16.678 -30.397,16.678 -30.398,16.677 -30.397,-16.677 -30.397,-16.678 30.397,-16.678 30.397,-16.678 z m 0,68.023 30.397,16.678 -30.397,16.677 -30.398,16.678 -30.397,-16.678 -30.397,-16.677 30.397,-16.678 30.397,-16.678 z m 0.98,-0.562 -30.397,-16.678 30.397,-16.678 30.397,-16.678 30.398,16.678 30.397,16.678 -30.397,16.678 -30.398,16.678 z m 61.579,0.562 30.397,-16.678 30.398,16.678 L 26.689,495 -3.708,511.677 -34.106,528.355 -64.503,511.677 -94.9,495 Z m 61.775,-0.562 -30.397,-16.678 30.397,-16.678 30.397,-16.678 30.397,16.678 30.398,16.678 -30.398,16.678 -30.397,16.678 z m 61.579,0.562 30.397,-16.678 30.397,16.678 L 150.043,495 119.645,511.677 89.248,528.355 58.851,511.677 28.454,495 Z m 61.579,-0.562 -30.397,-16.678 30.397,-16.678 30.397,-16.678 30.397,16.678 30.397,16.678 -30.397,16.678 -30.397,16.678 z m 61.579,0.562 30.397,-16.678 30.397,16.678 L 273.2,495 242.803,511.677 212.406,528.355 182.009,511.677 151.611,495 Z m 61.578,-0.562 -30.397,-16.678 30.397,-16.678 30.398,-16.678 30.397,16.678 30.397,16.678 -30.397,16.678 -30.397,16.678 z m 61.579,0.562 30.398,-16.678 30.397,16.678 L 396.358,495 365.961,511.677 335.564,528.355 305.166,511.677 274.769,495 Z m 61.579,-0.562 -30.397,-16.678 30.397,-16.678 30.397,-16.678 30.398,16.678 30.397,16.678 -30.397,16.678 -30.398,16.678 z m 61.579,0.562 30.397,-16.678 30.397,16.678 L 519.516,495 489.118,511.677 458.721,528.355 428.324,511.677 397.927,495 Z m 61.579,-0.562 -30.397,-16.678 30.397,-16.678 30.397,-16.678 30.397,16.678 30.398,16.678 -30.398,16.678 -30.397,16.678 z m 61.579,0.562 30.397,-16.678 30.397,16.678 L 642.673,495 612.276,511.677 581.879,528.355 551.482,511.677 521.085,495 Z m 61.579,-0.562 -30.398,-16.678 30.398,-16.678 30.397,-16.678 30.402,16.678 30.39,16.678 -30.39,16.678 -30.402,16.678 z m 0,-68.023 -30.398,-16.678 30.398,-16.678 30.397,-16.677 30.402,16.677 30.39,16.678 -30.39,16.678 -30.402,16.678 z m 0,-67.835 -30.398,-16.678 30.398,-16.678 30.397,-16.678 30.402,16.678 30.39,16.678 -30.39,16.678 -30.402,16.677 z m 0,-68.023 -30.398,-16.678 30.398,-16.678 30.397,-16.678 30.402,16.678 30.39,16.678 -30.39,16.678 -30.402,16.677 z m 0,-68.023 -30.398,-16.678 30.398,-16.678 30.397,-16.677 30.402,16.677 30.39,16.678 -30.39,16.678 -30.402,16.678 z m 0,-67.8355 -30.398,-16.6778 30.398,-16.6778 30.397,-16.6778 30.402,16.6778 30.39,16.6778 -30.39,16.6778 -30.402,16.6775 z m -0.981,0.5621 30.397,16.6774 -30.397,16.678 -30.397,16.678 -30.397,-16.678 -30.398,-16.678 30.398,-16.6774 30.397,-16.6778 z m -61.579,-0.5621 -30.397,16.6775 -30.397,-16.6775 -30.397,-16.6778 30.397,-16.6778 30.397,-16.6778 30.397,16.6778 30.397,16.6778 z m -61.579,0.5621 30.398,16.6774 -30.398,16.678 -30.397,16.678 -30.397,-16.678 -30.397,-16.678 30.397,-16.6774 30.397,-16.6778 z m -61.579,-0.5621 -30.397,16.6775 -30.397,-16.6775 -30.397,-16.6778 30.397,-16.6778 30.397,-16.6778 30.397,16.6778 30.398,16.6778 z m -61.578,0.5621 30.397,16.6774 -30.397,16.678 -30.398,16.678 -30.201,-16.678 -30.397,-16.678 30.397,-16.6774 30.398,-16.6778 z m -61.579,-0.5621 -30.397,16.6775 -30.398,-16.6775 -30.397,-16.6778 30.397,-16.6778 30.398,-16.6778 30.397,16.6778 30.397,16.6778 z m -61.579,0.5621 30.397,16.6774 -30.397,16.678 -30.397,16.678 -30.398,-16.678 -30.397,-16.678 30.397,-16.6774 30.398,-16.6778 z m -61.579,-0.5621 -30.397,16.6775 -30.397,-16.6775 -30.398,-16.6778 30.398,-16.6778 30.397,-16.6778 30.397,16.6778 30.397,16.6778 z m -61.579,0.5621 30.397,16.6774 -30.397,16.678 L 89.052,188.616 58.655,171.938 28.258,155.26 58.655,138.5826 89.052,121.9048 Z M 57.87,138.0205 27.473,154.698 -2.924,138.0205 -33.321,121.3427 -2.924,104.6649 27.473,87.9871 57.87,104.6649 88.268,121.3427 Z m -61.775,0.5621 30.398,16.6774 -30.398,16.678 -30.397,16.678 -30.397,-16.678 -30.397,-16.678 30.397,-16.6774 30.397,-16.6778 z m -61.578,-0.5621 -30.398,16.6775 -30.397,-16.6775 -30.397,-16.6778 30.397,-16.6778 30.397,-16.6778 30.398,16.6778 30.397,16.6778 z m -61.579,0.5621 30.397,16.6774 -30.397,16.678 -30.398,16.678 -30.397,-16.678 -30.397,-16.678 30.397,-16.6774 30.397,-16.6778 z m -61.579,-0.5621 -30.397,16.6775 -30.3976,-16.6775 -30.3972,-16.6778 30.3972,-16.6778 30.3976,-16.6778 30.397,16.6778 30.397,16.6778 z m 0,34.4795 30.397,16.678 -30.397,16.678 -30.397,16.678 -30.3976,-16.678 -30.3972,-16.678 30.3972,-16.678 30.3976,-16.677 z m 0,68.023 30.397,16.678 -30.397,16.678 -30.397,16.677 -30.3976,-16.677 -30.3972,-16.678 30.3972,-16.678 30.3976,-16.678 z m 0,67.836 30.397,16.677 -30.397,16.678 -30.201,16.865 -30.3975,-16.677 -30.3972,-16.678 30.3972,-16.678 30.3975,-16.678 z m 0,68.022 30.397,16.678 -30.397,16.678 -30.397,16.678 -30.3976,-16.678 -30.3972,-16.678 30.3972,-16.678 30.3976,-16.677 z m 0,68.023 30.397,16.678 -30.397,16.678 -30.397,16.678 -30.3976,-16.678 -30.3972,-16.678 30.3972,-16.678 30.3976,-16.678 z m 0,67.836 30.397,16.677 -30.397,16.678 -30.397,16.678 -30.3976,-16.678 -30.3972,-16.678 30.3972,-16.677 30.3976,-16.678 z m 0.98,34.105 30.398,-16.678 30.397,16.678 30.397,16.678 -30.397,16.677 -30.397,16.678 -30.398,-16.678 -30.397,-16.677 z m 61.579,-0.562 -30.397,-16.678 30.397,-16.678 30.397,-16.678 30.202,16.491 30.397,16.677 -30.397,16.678 -30.398,16.678 z m 61.579,0.562 30.397,-16.678 30.398,16.678 30.397,16.678 L -3.708,579.7 -34.106,596.378 -64.503,579.7 -94.9,563.023 Z m 61.775,-0.562 -30.397,-16.678 30.397,-16.865 30.397,-16.678 30.397,16.678 30.398,16.677 -30.398,16.678 -30.397,16.678 z m 61.579,0.562 30.397,-16.678 30.397,16.678 30.398,16.678 L 119.645,579.7 89.248,596.378 58.851,579.7 28.454,563.023 Z m 61.579,-0.562 -30.397,-16.678 30.397,-16.678 30.397,-16.678 30.397,16.678 30.397,16.678 -30.397,16.678 -30.397,16.677 z m 61.579,0.562 30.397,-16.678 30.397,16.678 30.397,16.678 -30.397,16.677 -30.397,16.678 -30.397,-16.678 -30.398,-16.677 z m 61.578,-0.562 -30.397,-16.678 30.397,-16.678 30.398,-16.678 30.397,16.678 30.397,16.678 -30.397,16.678 -30.397,16.677 z m 61.579,0.562 30.398,-16.678 30.397,16.678 30.397,16.678 -30.397,16.677 -30.397,16.678 -30.398,-16.678 -30.397,-16.677 z m 61.579,-0.562 -30.397,-16.678 30.397,-16.678 30.397,-16.678 30.398,16.678 30.397,16.678 -30.397,16.678 -30.398,16.677 z m 61.579,0.562 30.397,-16.678 30.397,16.678 30.398,16.678 -30.398,16.677 -30.397,16.678 -30.397,-16.678 -30.397,-16.677 z m 61.579,-0.562 -30.397,-16.678 30.397,-16.678 30.397,-16.678 30.397,16.678 30.398,16.678 -30.398,16.678 -30.397,16.677 z m 61.579,0.562 30.397,-16.678 30.397,16.678 30.397,16.678 -30.397,16.677 -30.397,16.678 -30.397,-16.678 -30.397,-16.677 z m 61.579,-0.562 -30.398,-16.678 30.398,-16.865 30.397,-16.678 30.402,16.678 30.39,16.677 -30.39,16.678 -30.402,16.678 z m 61.579,0.562 30.4,-16.678 30.39,16.678 30.4,16.678 -30.4,16.677 -30.39,16.678 -30.4,-16.678 -30.398,-16.677 z m 0,-34.668 -30.398,-16.677 30.398,-16.678 30.4,-16.678 30.39,16.678 30.4,16.678 -30.4,16.677 -30.39,16.678 z m 0,-67.835 -30.398,-16.678 30.398,-16.678 30.4,-16.677 30.39,16.677 30.4,16.678 -30.4,16.678 -30.39,16.678 z m 0,-68.023 -30.398,-16.678 30.398,-16.677 30.4,-16.678 30.39,16.678 30.4,16.677 -30.4,16.678 -30.39,16.678 z m 0,-68.023 -30.202,-16.677 30.402,-16.678 30.39,-16.678 30.4,16.678 30.4,16.678 -30.4,16.677 -30.4,16.678 z m 0,-67.835 -30.398,-16.678 30.398,-16.678 30.4,-16.677 30.39,16.677 30.4,16.678 -30.4,16.678 -30.39,16.678 z m 0,-68.023 -30.202,-16.678 30.402,-16.6774 30.39,-16.6778 30.4,16.6778 30.4,16.6774 -30.4,16.678 -30.4,16.678 z M 613.061,36.6421 643.458,19.9643 673.86,36.6421 704.25,53.3199 673.66,69.9976 643.262,86.6754 613.061,69.9976 582.663,53.3199 Z M 612.08,70.5598 642.477,87.2376 612.08,103.9153 581.683,120.5931 551.286,103.9153 520.888,87.2376 551.286,70.5598 581.683,53.882 Z M 489.903,36.6421 520.3,19.9643 550.697,36.6421 581.095,53.3199 550.501,69.9976 520.104,86.6754 489.903,69.9976 459.506,53.3199 Z m -0.981,33.9177 30.398,16.6778 -30.398,16.6777 -30.397,16.6778 L 428.128,103.9153 397.731,87.2376 428.128,70.5598 458.525,53.882 Z M 366.745,36.6421 397.142,19.9643 427.54,36.6421 457.937,53.3199 427.343,69.9976 396.946,86.6754 366.745,69.9976 336.348,53.3199 Z m -0.98,33.9177 30.397,16.6778 -30.397,16.6777 -30.398,16.6778 L 305.166,103.9153 274.769,87.2376 305.166,70.5598 335.564,53.882 Z M 243.587,36.6421 273.985,19.9643 304.382,36.6421 334.779,53.3199 304.186,69.9976 273.789,86.6754 243.587,69.9976 213.19,53.3199 Z m -0.98,33.9177 30.397,16.6778 -30.397,16.6777 L 212.21,120.5931 181.812,103.9153 151.415,87.2376 181.812,70.5598 212.21,53.882 Z M 120.43,36.6421 150.827,19.9643 181.224,36.6421 211.621,53.3199 181.028,69.9976 150.631,86.6754 120.43,69.9976 90.033,53.3199 Z m -0.981,33.9177 30.397,16.6778 -30.397,16.6777 L 89.052,120.5931 58.655,103.9153 28.258,87.2376 58.655,70.5598 89.052,53.882 Z M -2.924,36.6421 27.473,19.9643 57.87,36.6421 88.268,53.3199 57.87,69.9976 27.473,86.6754 -2.924,69.9976 -33.321,53.3199 Z M -3.905,70.5598 26.493,87.2376 -3.905,103.9153 -34.106,120.7805 -64.503,104.1027 -94.9,87.425 -64.503,70.7472 -34.106,54.0694 Z m -122.177,-33.9177 30.397,-16.6778 30.398,16.6778 30.397,16.6778 -30.593,16.6777 -30.398,16.6778 -30.201,-16.6778 -30.397,-16.6777 z m -0.98,33.9177 30.397,16.6778 -30.397,16.6777 -30.398,16.6778 -30.397,-16.6778 -30.397,-16.6777 30.397,-16.6778 30.397,-16.6778 z m -122.1775,-33.9177 30.3975,-16.6778 30.397,16.6778 30.397,16.6778 -30.593,16.6777 -30.397,16.6778 -30.2015,-16.6778 -30.3972,-16.6777 z m -61.5788,67.2732 -30.20115,-16.6777 30.39725,-16.6778 30.3972,-16.6778 30.3972,16.6778 30.3968,16.6778 -30.3968,16.6777 -30.3972,16.6778 z m 0,68.0227 -30.20115,-16.678 30.39725,-16.6774 30.3972,-16.6778 30.3972,16.6778 30.3968,16.6774 -30.3968,16.678 -30.3972,16.678 z m 0,68.023 -30.39726,-16.678 30.39726,-16.678 30.3972,-16.677 30.3972,16.677 30.3969,16.678 -30.3969,16.678 -30.3972,16.678 z m 0,67.835 -30.20114,-16.677 30.39724,-16.678 30.3972,-16.678 30.3972,16.678 30.3968,16.678 -30.3968,16.677 -30.3972,16.678 z m 0,68.023 -30.39726,-16.678 30.39726,-16.677 30.3972,-16.678 30.3972,16.678 30.3969,16.677 -30.3969,16.678 -30.3972,16.678 z m 0,68.023 -30.39726,-16.678 30.39726,-16.678 30.3972,-16.677 30.3972,16.677 30.3969,16.678 -30.3969,16.678 -30.3972,16.678 z m 0,67.835 -30.39726,-16.677 30.39726,-16.678 30.3972,-16.678 30.3972,16.678 30.3969,16.678 -30.3969,16.677 -30.3972,16.678 z m 0,68.023 -30.39726,-16.677 30.39726,-16.678 30.3972,-16.678 30.3972,16.678 30.3969,16.678 -30.593,16.677 -30.3973,16.678 z m 60.5983,68.023 -30.3973,16.678 -30.3972,-16.678 -30.39717,-16.678 30.39717,-16.677 30.3972,-16.678 30.3973,16.678 30.397,16.677 z m 0.9805,-34.105 -30.3972,-16.678 30.3972,-16.678 30.3975,-16.677 30.397,16.677 30.397,16.678 -30.397,16.678 -30.397,16.678 z m 122.1775,34.105 -30.398,16.678 -30.397,-16.678 -30.397,-16.678 30.397,-16.677 30.397,-16.678 30.398,16.678 30.397,16.677 z m 0.98,-34.105 -30.397,-16.678 30.397,-16.678 30.397,-16.677 30.398,16.677 30.397,16.678 -30.397,16.678 -30.398,16.678 z m 122.374,34.105 -30.398,16.678 -30.397,-16.678 -30.397,-16.678 30.397,-16.677 30.397,-16.678 30.398,16.678 30.397,16.677 z m 0.98,-34.105 -30.397,-16.678 30.397,-16.678 30.397,-16.677 30.397,16.677 30.398,16.678 -30.398,16.678 -30.397,16.678 z m 122.177,34.105 -30.397,16.678 -30.397,-16.678 -30.397,-16.678 30.397,-16.677 30.397,-16.678 30.397,16.678 30.397,16.677 z m 0.981,-34.105 -30.397,-16.678 30.397,-16.678 30.397,-16.677 30.397,16.677 30.397,16.678 -30.397,16.678 -30.397,16.678 z m 122.177,34.105 -30.397,16.678 -30.398,-16.678 -30.397,-16.678 30.397,-16.677 30.398,-16.678 30.397,16.678 30.397,16.677 z m 0.98,-34.105 -30.397,-16.678 30.397,-16.678 30.398,-16.677 30.397,16.677 30.397,16.678 -30.397,16.678 -30.397,16.678 z m 122.178,34.105 -30.398,16.678 -30.397,-16.678 -30.397,-16.678 30.397,-16.677 30.397,-16.678 30.398,16.678 30.397,16.677 z m 0.98,-34.105 -30.397,-16.678 30.397,-16.678 30.397,-16.677 30.398,16.677 30.397,16.678 -30.397,16.678 -30.398,16.678 z m 122.177,34.105 -30.397,16.678 -30.397,-16.678 -30.397,-16.678 30.397,-16.677 30.397,-16.678 30.397,16.678 30.398,16.677 z m 0.981,-34.105 -30.397,-16.678 30.397,-16.678 30.397,-16.677 30.397,16.677 30.398,16.678 -30.398,16.678 -30.397,16.678 z m 122.177,34.105 -30.397,16.678 -30.397,-16.678 -30.398,-16.678 30.398,-16.677 30.397,-16.678 30.397,16.678 30.397,16.677 z m 0.981,-34.105 -30.398,-16.678 30.398,-16.678 30.397,-16.677 30.402,16.677 30.39,16.678 -30.39,16.678 -30.402,16.678 z m 122.179,34.105 -30.4,16.678 -30.4,-16.678 -30.394,-16.678 30.394,-16.677 30.4,-16.678 30.4,16.678 30.4,16.677 z m 61.77,-67.461 30.4,16.678 -30.4,16.678 -30.39,16.678 -30.4,-16.678 -30.4,-16.678 30.4,-16.678 30.4,-16.677 z m -0.19,-68.022 30.39,16.677 -30.39,16.678 -30.4,16.678 -30.4,-16.678 -30.4,-16.678 30.4,-16.677 30.4,-16.678 z m 0,-67.836 30.39,16.678 -30.39,16.678 -30.4,16.678 -30.4,-16.678 -30.4,-16.678 30.4,-16.678 30.4,-16.678 z m 0,-68.023 30.39,16.678 -30.39,16.678 -30.4,16.678 -30.4,-16.678 -30.4,-16.678 30.4,-16.678 30.4,-16.677 z m 0,-68.022 30.39,16.677 -30.39,16.678 -30.4,16.678 -30.4,-16.678 -30.4,-16.678 30.4,-16.677 30.4,-16.678 z m 0,-67.836 30.39,16.678 -30.39,16.678 -30.4,16.677 -30.4,-16.677 -30.4,-16.678 30.4,-16.678 30.4,-16.678 z m 0,-68.023 30.39,16.678 -30.39,16.678 -30.4,16.678 -30.4,-16.678 -30.4,-16.678 30.4,-16.678 30.4,-16.677 z m 0,-68.0225 30.39,16.6778 -30.39,16.6778 -30.4,16.6779 -30.4,-16.6779 -30.4,-16.6778 30.4,-16.6778 30.4,-16.6777 z m 0,-34.4799 -30.4,16.6778 -30.2,-16.6778 -30.4,-16.6777 30.4,-16.6778 30.4,-16.6778 30.39,16.6778 30.4,16.6778 z"
     fill="url(#paint1_radial_46_394)"
     fill-opacity="0.9"
     id="path4"
     style="fill:url(#paint1_radial_46_394)" />
  <defs
     id="defs24">
    <radialGradient
       id="paint0_radial_46_394"
       cx="0"
       cy="0"
       r="1"
       gradientUnits="userSpaceOnUse"
       gradientTransform="matrix(1448.4,0,0,1383.99,-343.92864,614.019)">
      <stop
         stop-color="#42E8E0"
         id="stop6" />
      <stop
         offset="0.5161"
         stop-color="#42E8E0"
         id="stop8" />
      <stop
         offset="0.9317"
         stop-color="#42E8E0"
         id="stop10" />
      <stop
         offset="1"
         stop-color="#42E8E0"
         id="stop12" />
    </radialGradient>
    <radialGradient
       id="paint1_radial_46_394"
       cx="0"
       cy="0"
       r="1"
       gradientUnits="userSpaceOnUse"
       gradientTransform="matrix(1448.4,0,0,1383.99,-343.92864,2.6817)">
      <stop
         stop-color="#42E8E0"
         id="stop15" />
      <stop
         offset="0.5161"
         stop-color="#42E8E0"
         id="stop17" />
      <stop
         offset="0.9317"
         stop-color="#42E8E0"
         id="stop19" />
      <stop
         offset="1"
         stop-color="#42E8E0"
         id="stop21" />
    </radialGradient>
  </defs>
</svg>
