<?xml version="1.0" encoding="UTF-8" standalone="no"?>
<svg
   width="980"
   height="818"
   viewBox="0 0 300 818"
   fill="none"
   version="1.1"
   id="svg26"
   xmlns="http://www.w3.org/2000/svg">
  <path
     opacity="0.1"
     d="m 799.8,647.417 -30.2,-16.678 30.2,-16.865 3.53,-1.874 h -1.96 l -2.55,1.312 -30.4,16.678 -30.4,-16.678 -2.35,-1.312 h -1.96 l 3.53,1.874 30.4,16.678 -30.4,16.677 -30.4,16.678 -30.4,-16.678 -30.002,-16.49 30.202,-16.865 3.53,-1.874 h -1.96 l -2.55,1.312 -30.398,16.678 -30.201,-16.678 -2.55,-1.312 h -1.961 l 3.53,1.874 30.397,16.865 -30.397,16.678 -30.397,16.678 -30.397,-16.678 -30.005,-16.678 30.201,-16.865 3.53,-1.874 h -1.961 l -2.55,1.312 -30.397,16.678 -30.397,-16.678 -2.354,-1.312 h -1.961 l 3.53,1.874 30.398,16.678 -30.398,16.677 -30.397,16.678 -30.397,-16.678 -30.201,-16.49 30.397,-16.865 3.53,-1.874 h -1.961 l -2.55,1.312 -30.397,16.678 -30.397,-16.678 -2.353,-1.312 h -1.961 l 3.53,1.874 30.397,16.678 -30.397,16.677 -30.398,16.678 -30.201,-16.49 -30.397,-16.678 30.397,-16.865 3.53,-1.874 h -1.961 l -2.549,1.312 -30.397,16.865 -30.398,-16.678 -2.353,-1.499 h -1.961 l 3.53,1.874 30.397,16.678 -30.397,16.677 -30.397,16.678 -30.398,-16.678 -30.201,-16.49 30.398,-16.865 3.53,-1.874 h -1.961 l -2.55,1.312 L 152.631,629.99 122.234,613.312 119.88,612 h -1.961 l 3.53,1.874 30.397,16.678 -30.397,16.677 L 91.052,663.907 60.655,647.229 30.454,630.739 60.851,613.874 64.381,612 H 62.42 L 59.87,613.312 29.473,629.99 -0.924,613.312 -3.277,612 h -1.961 l 3.53,1.874 30.397,16.678 -30.397,16.677 -30.398,16.866 -30.397,-16.678 -30.397,-16.678 30.397,-16.865 3.53,-1.874 h -1.961 l -2.549,1.312 -30.398,16.678 -30.397,-16.678 -2.157,-1.312 h -1.961 l 3.53,1.874 30.397,16.678 -30.397,16.677 -30.397,16.678 -30.398,-16.678 -30.201,-16.677 30.201,-16.678 3.53,-1.874 h -1.961 l -2.549,1.312 -30.201,16.865 -30.3975,-16.865 -2.5494,-1.312 h -1.9611 l 3.53,1.874 30.397,16.678 -30.397,16.677 -30.3973,16.678 -30.3972,-16.678 -30.00494,-16.677 30.20114,-16.678 3.53,-1.874 h -1.9612 l -2.5494,1.312 L -340,629.99 v 1.124 l 30.2011,16.678 30.3972,16.677 -30.3972,16.866 L -340,698.012 v 1.125 l 30.2011,16.677 30.3972,16.678 -30.3972,16.678 L -340,766.035 v 1.124 l 30.2011,16.678 30.3972,16.678 -30.3972,16.678 L -340,833.871 v 1.124 l 30.2011,16.678 30.3972,16.677 -30.3972,16.678 L -340,901.893 v 1.125 l 30.2011,16.677 30.3972,16.678 -30.3972,16.678 L -340,969.916 v 1.125 l 30.2011,16.677 30.3972,16.678 -30.3972,16.678 -30.2011,16.678 v 1.124 l 30.2011,16.674 30.3972,16.68 -30.3972,16.68 -30.2011,16.86 v 1.13 l 30.2011,16.68 30.3972,16.67 -30.3972,16.68 L -340,1173.8 v 1.12 l 30.2011,16.68 30.3972,16.68 -30.3972,16.67 -30.2011,16.68 v 1.13 l 30.2011,16.67 30.3972,16.68 -20.0033,11.06 h 1.9611 l 19.0228,-10.5 19.0227,10.5 h 1.9611 l -20.0033,-11.06 30.3972,-16.68 30.3974,-16.67 30.397,16.67 30.397,16.68 -20.003,11.06 h 1.961 l 19.023,-10.5 19.023,10.5 h 1.961 l -20.004,-11.06 30.398,-16.68 30.397,-16.67 30.397,16.67 30.397,16.68 -20.003,11.06 h 1.961 l 19.023,-10.5 19.023,10.5 h 1.961 l -20.004,-11.06 30.397,-16.68 30.398,-16.67 30.397,16.67 30.397,16.68 -20.003,11.06 h 1.961 l 19.023,-10.5 19.022,10.5 h 1.962 l -20.004,-11.06 30.397,-16.68 30.398,-16.67 30.397,16.67 30.397,16.68 -20.003,11.06 h 1.961 l 19.023,-10.5 19.022,10.5 h 1.962 l -20.004,-11.06 30.397,-16.68 30.398,-16.67 30.397,16.67 30.397,16.68 -20.003,11.06 h 1.961 l 19.023,-10.5 19.022,10.5 h 1.961 l -20.003,-11.06 30.397,-16.68 30.398,-16.67 30.397,16.67 30.397,16.68 -20.003,11.06 h 1.961 l 19.022,-10.5 19.023,10.5 h 1.961 l -20.003,-11.06 30.397,-16.68 30.397,-16.67 30.398,16.67 30.397,16.68 -20.003,11.06 h 1.961 l 19.022,-10.5 19.023,10.5 h 1.961 l -20.003,-11.06 30.397,-16.68 30.397,-16.67 30.397,16.67 30.4,16.68 -20.01,11.06 h 1.97 l 19.02,-10.5 19.02,10.5 h 1.96 l -20,-11.06 30.4,-16.68 30.39,-16.67 30.4,16.67 30.4,16.68 -20.01,11.06 h 1.97 l 19.02,-10.5 6.47,3.57 v -1.13 l -5.49,-3 5.49,-3 v -1.12 l -6.47,3.56 -30.4,-16.68 -30.4,-16.68 30.4,-16.67 30.4,-16.68 6.47,3.56 v -1.12 l -5.49,-3 5.49,-3 v -1.13 l -6.47,3.56 -30.4,-16.67 -30.4,-16.68 30.4,-16.68 30.4,-16.68 6.47,3.56 v -1.12 l -5.49,-3 5.49,-3 v -1.12 l -6.47,3.56 -30.4,-16.68 -30.4,-16.68 30.4,-16.67 30.4,-16.68 6.47,3.56 v -1.13 l -5.49,-2.99 5.49,-3 v -1.13 l -6.47,3.56 -30.4,-16.67 -30.4,-16.681 30.4,-16.678 30.4,-16.678 6.47,3.56 v -1.499 l -5.49,-2.998 5.49,-2.998 v -1.125 l -6.47,3.561 -30.4,-16.678 -30.4,-16.678 30.4,-16.677 30.4,-16.678 6.47,3.56 v -1.124 l -5.49,-2.998 5.49,-2.999 v -1.124 l -6.47,3.56 -30.4,-16.677 -30.4,-16.678 30.4,-16.678 30.4,-16.678 6.47,3.561 v -1.125 l -5.49,-2.998 5.49,-2.998 v -1.124 l -6.47,3.56 -30.4,-16.678 -30.4,-16.677 30.4,-16.678 30.4,-16.678 6.47,3.56 v -1.124 l -5.49,-2.998 2.16,-3.373 v -1.125 l -6.48,3.561 -30.39,-16.678 -30.4,-16.678 30.4,-16.677 30.39,-16.678 6.48,3.56 v -1.124 l -5.5,-2.998 5.5,-2.999 v -1.124 l -6.48,3.56 -30.39,-16.677 -30.4,-16.678 30.4,-16.678 30.39,-16.678 6.48,3.561 v -1.125 l -5.5,-2.998 5.5,-2.998 v -1.124 l -6.48,3.56 z m -62.56,34.48 30.4,16.677 -30.4,16.678 -30.4,16.678 -30.4,-16.678 -30.002,-16.678 30.402,-16.677 30.39,-16.678 z m -737.968,271.341 -30.397,-16.677 30.397,-16.678 30.397,-16.678 30.397,16.678 30.398,16.678 -30.398,16.677 -30.397,16.678 z m 29.221,17.24 -30.398,16.678 -30.397,16.678 -30.397,-16.678 -30.397,-16.678 30.397,-16.677 30.397,-16.678 30.397,16.678 z m 32.358,-16.677 30.397,-16.678 30.397,16.678 30.398,16.677 -30.398,16.678 -30.397,16.678 -30.397,-16.678 -30.397,-16.678 z m 61.579,-0.563 -30.397,-16.677 30.397,-16.678 30.397,-16.678 30.397,16.678 30.397,16.678 -30.397,16.677 -30.397,16.678 z m 61.579,0.563 30.397,-16.678 30.397,16.678 30.397,16.677 -30.397,16.678 -30.397,16.678 -30.397,-16.678 -30.398,-16.678 z m 61.578,-0.563 -30.397,-16.677 30.397,-16.678 30.398,-16.678 30.397,16.678 30.397,16.678 -30.397,16.677 -30.593,16.678 z m 61.579,0.563 30.398,-16.678 30.397,16.678 30.397,16.677 -30.397,16.678 -30.397,16.678 -30.398,-16.678 -30.397,-16.678 z m 61.579,-0.563 -30.397,-16.677 30.397,-16.678 30.397,-16.678 30.398,16.678 30.397,16.678 -30.397,16.677 -30.398,16.678 z m 61.579,0.563 30.397,-16.678 30.397,16.678 30.398,16.677 -30.398,16.678 -30.397,16.678 -30.397,-16.678 -30.397,-16.678 z m 61.579,-0.563 -30.397,-16.677 30.397,-16.678 30.397,-16.678 30.397,16.678 30.398,16.678 -30.398,16.677 -30.397,16.678 z m 0,-68.022 -30.397,-16.678 30.397,-16.678 30.397,-16.678 30.397,16.678 30.398,16.678 -30.398,16.678 -30.397,16.677 z m -0.981,0.562 30.398,16.678 -30.398,16.677 -30.397,16.678 -30.397,-16.678 -30.397,-16.677 30.397,-16.678 30.397,-16.678 z m -61.579,-0.562 -30.397,16.677 -30.397,-16.677 -30.397,-16.678 30.397,-16.678 30.397,-16.678 30.397,16.678 30.398,16.678 z m -61.578,0.562 30.397,16.678 -30.397,16.677 -30.398,16.678 -30.397,-16.678 -30.397,-16.677 30.397,-16.678 30.397,-16.678 z m -61.579,-0.562 -30.397,16.677 -30.398,-16.677 -30.397,-16.678 30.397,-16.678 30.398,-16.865 30.397,16.678 30.397,16.677 z m -61.579,0.562 30.397,16.678 -30.397,16.677 -30.397,16.678 -30.398,-16.678 -30.397,-16.677 30.397,-16.678 30.398,-16.678 z m -61.579,-0.562 -30.397,16.677 -30.397,-16.677 -30.398,-16.678 30.398,-16.678 30.397,-16.678 30.397,16.678 30.397,16.678 z m -61.579,0.562 30.397,16.678 -30.397,16.677 L 91.052,935.811 60.655,919.133 30.258,902.456 60.655,885.778 91.052,869.1 Z M 59.87,885.216 29.473,901.893 -0.924,885.216 -31.321,868.538 -0.924,851.86 29.473,835.182 59.87,851.86 90.268,868.538 Z m -61.775,0.562 30.398,16.678 -30.398,16.677 -30.397,16.678 -30.397,-16.678 -30.397,-16.677 30.397,-16.678 30.397,-16.678 z m -61.578,-0.562 -30.398,16.677 -30.397,-16.677 -30.397,-16.678 30.397,-16.678 30.397,-16.678 30.398,16.678 30.397,16.678 z m 0,34.479 30.397,16.678 -30.397,16.678 -30.398,16.678 -30.397,-16.678 -30.397,-16.678 30.397,-16.678 30.397,-16.677 z m 0,68.023 30.397,16.678 -30.397,16.678 -30.398,16.678 -30.397,-16.678 -30.397,-16.678 30.397,-16.678 30.397,-16.677 z m 0.98,33.918 30.397,-16.678 30.398,16.678 30.397,16.678 -30.397,16.676 -30.398,16.68 -30.397,-16.68 -30.397,-16.676 z m 61.775,-0.562 -30.397,-16.678 30.397,-16.678 30.397,-16.677 30.397,16.677 30.398,16.678 -30.398,16.678 -30.397,16.678 z m 61.579,0.562 30.397,-16.678 30.397,16.678 30.398,16.678 -30.398,16.676 -30.397,16.68 -30.397,-16.68 -30.397,-16.676 z m 61.579,-0.562 -30.397,-16.678 30.397,-16.678 30.397,-16.677 30.397,16.677 30.397,16.678 -30.397,16.678 -30.397,16.678 z m 61.579,0.562 30.397,-16.678 30.397,16.678 30.397,16.678 -30.397,16.676 -30.397,16.68 -30.397,-16.68 -30.398,-16.676 z m 61.578,-0.562 -30.397,-16.678 30.397,-16.678 30.398,-16.677 30.397,16.677 30.397,16.678 -30.397,16.678 -30.397,16.678 z m 61.579,0.562 30.398,-16.678 30.397,16.678 30.397,16.678 -30.397,16.676 -30.397,16.68 -30.398,-16.68 -30.397,-16.676 z m 61.579,-0.562 -30.397,-16.678 30.397,-16.678 30.397,-16.677 30.398,16.677 30.397,16.678 -30.397,16.678 -30.398,16.678 z m 61.579,0.562 30.397,-16.678 30.397,16.678 30.398,16.678 -30.398,16.676 -30.397,16.68 -30.397,-16.68 -30.397,-16.676 z m 61.579,-0.562 -30.397,-16.678 30.397,-16.678 30.397,-16.677 30.397,16.677 30.398,16.678 -30.398,16.678 -30.397,16.678 z m 61.579,0.562 30.397,-16.678 30.397,16.678 30.397,16.678 -30.397,16.676 -30.397,16.68 -30.397,-16.68 -30.397,-16.676 z m 0,-34.48 -30.397,-16.678 30.397,-16.677 30.397,-16.678 30.397,16.678 30.397,16.677 -30.397,16.678 -30.397,16.678 z m 0,-68.023 -30.397,-16.677 30.397,-16.678 30.397,-16.678 30.397,16.678 30.201,16.678 -30.397,16.677 -30.397,16.678 z m 0,-67.835 -30.397,-16.678 30.397,-16.678 30.397,-16.677 30.397,16.677 30.397,16.678 -30.397,16.678 -30.397,16.678 z m -0.981,-34.105 -30.397,16.678 -30.397,-16.678 -30.397,-16.678 30.397,-16.678 30.397,-16.678 30.397,16.678 30.397,16.678 z m -61.579,0.562 30.398,16.678 -30.398,16.677 -30.397,16.678 -30.397,-16.678 -30.397,-16.677 30.397,-16.678 30.397,-16.678 z m -61.579,-0.562 -30.397,16.678 -30.397,-16.678 -30.397,-16.678 30.397,-16.678 30.397,-16.678 30.397,16.678 30.398,16.678 z m -61.578,0.562 30.397,16.678 -30.397,16.677 -30.398,16.678 -30.397,-16.678 -30.397,-16.677 30.397,-16.678 30.397,-16.678 z m -61.579,-0.562 -30.397,16.678 -30.398,-16.678 -30.397,-16.678 30.397,-16.678 30.398,-16.678 30.397,16.678 30.397,16.678 z m -61.579,0.562 30.397,16.678 -30.397,16.677 -30.397,16.678 -30.398,-16.678 -30.397,-16.677 30.397,-16.678 30.398,-16.678 z m -61.579,-0.562 -30.397,16.678 -30.397,-16.678 -30.398,-16.678 30.398,-16.678 30.397,-16.678 30.397,16.678 30.397,16.678 z m -61.579,0.562 30.397,16.678 L 121.449,851.11 91.052,867.788 60.655,851.11 30.258,834.433 60.655,817.755 91.052,801.077 Z M 59.87,817.193 29.473,833.871 -0.924,817.193 -31.321,800.515 -0.924,783.837 29.473,767.159 59.87,783.837 90.268,800.515 Z m -61.775,0.562 30.398,16.678 -30.398,16.677 -30.397,16.678 -30.397,-16.678 -30.397,-16.677 30.397,-16.678 30.397,-16.678 z m -61.578,-0.562 -30.398,16.678 -30.397,-16.678 -30.397,-16.678 30.397,-16.678 30.397,-16.678 30.398,16.678 30.397,16.678 z m -61.579,0.562 30.397,16.678 -30.397,16.677 -30.398,16.678 -30.397,-16.678 -30.397,-16.677 30.397,-16.678 30.397,-16.678 z m 0,68.023 30.397,16.678 -30.397,16.677 -30.398,16.678 -30.397,-16.678 -30.005,-16.677 30.397,-16.678 30.398,-16.678 z m 0,68.023 30.397,16.677 -30.397,16.678 -30.398,16.678 -30.397,-16.678 -30.397,-16.678 30.397,-16.677 30.397,-16.678 z m 0,67.835 30.397,16.678 -30.397,16.676 -30.398,16.68 -30.397,-16.68 -30.397,-16.676 30.397,-16.678 30.397,-16.678 z m 0,68.024 30.397,16.68 -30.397,16.67 -30.398,16.68 -30.397,-16.68 -30.397,-16.67 30.397,-16.68 30.397,-16.68 z m 0.98,-0.56 -30.397,-16.68 30.397,-16.68 30.397,-16.677 30.398,16.677 30.397,16.68 -30.397,16.68 -30.398,16.67 z m 61.579,0.56 30.397,-16.68 30.398,16.68 30.397,16.68 -30.397,16.67 -30.398,16.68 -30.397,-16.68 -30.397,-16.67 z m 61.775,-0.56 -30.397,-16.68 30.397,-16.68 30.397,-16.677 30.397,16.677 30.398,16.68 -30.398,16.68 -30.397,16.67 z m 61.579,0.56 30.397,-16.68 30.397,16.68 30.398,16.68 -30.398,16.67 -30.397,16.68 -30.397,-16.68 -30.397,-16.67 z m 61.579,-0.56 -30.397,-16.68 30.397,-16.68 30.397,-16.677 30.397,16.677 30.397,16.68 -30.397,16.68 -30.397,16.67 z m 61.579,0.56 30.397,-16.68 30.397,16.68 30.397,16.68 -30.397,16.67 -30.397,16.68 -30.397,-16.68 -30.398,-16.67 z m 61.578,-0.56 -30.397,-16.68 30.397,-16.68 30.398,-16.677 30.397,16.677 30.397,16.68 -30.397,16.68 -30.397,16.67 z m 61.579,0.56 30.398,-16.68 30.397,16.68 30.397,16.68 -30.397,16.67 -30.397,16.68 -30.398,-16.68 -30.397,-16.67 z m 61.579,-0.56 -30.397,-16.68 30.397,-16.68 30.397,-16.677 30.398,16.677 30.397,16.68 -30.397,16.68 -30.398,16.67 z m 61.579,0.56 30.397,-16.68 30.397,16.68 30.398,16.68 -30.398,16.67 -30.397,16.68 -30.397,-16.68 -30.397,-16.67 z m 61.579,-0.56 -30.397,-16.68 30.397,-16.68 30.397,-16.677 30.397,16.677 30.398,16.68 -30.398,16.68 -30.397,16.67 z m 61.579,0.56 30.397,-16.68 30.397,16.68 30.397,16.68 -30.397,16.67 -30.397,16.68 -30.397,-16.68 -30.397,-16.67 z m 61.579,-0.56 -30.398,-16.68 30.398,-16.68 30.397,-16.677 30.402,16.677 30.39,16.68 -30.39,16.68 -30.402,16.67 z m 0,-68.026 -30.398,-16.678 30.398,-16.678 30.397,-16.677 30.402,16.677 30.39,16.678 -30.39,16.678 -30.402,16.678 z m 0,-67.836 -30.398,-16.677 30.398,-16.678 30.397,-16.678 30.402,16.678 30.39,16.678 -30.39,16.677 -30.402,16.678 z m 0,-68.022 -30.398,-16.678 30.398,-16.678 30.397,-16.678 30.402,16.678 30.39,16.678 -30.39,16.678 -30.402,16.677 z m 0,-68.023 -30.398,-16.678 30.398,-16.678 30.397,-16.678 30.402,16.678 30.39,16.678 -30.39,16.678 -30.402,16.678 z m 0,-67.836 -30.398,-16.677 30.398,-16.678 30.397,-16.678 30.402,16.678 30.39,16.678 -30.39,16.677 -30.402,16.678 z m -0.981,0.563 30.397,16.677 -30.397,16.678 -30.397,16.678 -30.397,-16.678 -30.398,-16.678 30.398,-16.677 30.397,-16.678 z m -61.579,-0.563 -30.397,16.678 -30.397,-16.678 -30.397,-16.677 30.397,-16.678 30.397,-16.678 30.397,16.678 30.397,16.678 z m -61.579,0.563 30.398,16.677 -30.398,16.678 -30.397,16.678 -30.397,-16.678 -30.397,-16.678 30.397,-16.677 30.397,-16.678 z m -61.579,-0.563 -30.397,16.678 -30.397,-16.678 -30.397,-16.677 30.397,-16.678 30.397,-16.678 30.397,16.678 30.398,16.678 z m -61.578,0.563 30.397,16.677 -30.397,16.678 -30.398,16.678 -30.201,-16.678 -30.397,-16.678 30.397,-16.677 30.398,-16.678 z m -61.579,-0.563 -30.397,16.678 -30.398,-16.678 -30.397,-16.677 30.397,-16.678 30.398,-16.678 30.397,16.678 30.397,16.678 z m -61.579,0.563 30.397,16.677 -30.397,16.678 -30.397,16.678 -30.398,-16.678 -30.397,-16.678 30.397,-16.677 30.398,-16.678 z m -61.579,-0.563 -30.397,16.678 -30.397,-16.678 -30.398,-16.677 30.398,-16.678 30.397,-16.678 30.397,16.678 30.397,16.678 z m -61.579,0.563 30.397,16.677 -30.397,16.678 L 91.052,799.953 60.655,783.275 30.258,766.597 60.655,749.92 91.052,733.242 Z M 59.87,749.357 29.473,766.035 -0.924,749.357 -31.321,732.68 -0.924,716.002 29.473,699.324 59.87,716.002 90.268,732.68 Z m -61.775,0.563 30.398,16.677 -30.398,16.678 -30.397,16.678 -30.397,-16.678 -30.397,-16.678 30.397,-16.677 30.397,-16.678 z m -61.578,-0.563 -30.398,16.678 -30.397,-16.678 -30.397,-16.677 30.397,-16.678 30.397,-16.678 30.398,16.678 30.397,16.678 z m -61.579,0.563 30.397,16.677 -30.397,16.678 -30.398,16.678 -30.397,-16.678 -30.397,-16.678 30.397,-16.677 30.397,-16.678 z m -61.579,-0.563 -30.397,16.678 -30.3976,-16.678 -30.3972,-16.677 30.3972,-16.678 30.3976,-16.678 30.397,16.678 30.397,16.678 z m 0,34.48 30.397,16.678 -30.397,16.678 -30.397,16.678 -30.3976,-16.678 -30.3972,-16.678 30.3972,-16.678 30.3976,-16.678 z m 0,68.023 30.397,16.678 -30.397,16.678 -30.397,16.677 -30.3976,-16.677 -30.3972,-16.678 30.3972,-16.678 30.3976,-16.678 z m 0,67.835 30.397,16.678 -30.397,16.678 -30.201,16.865 -30.3975,-16.678 -30.3972,-16.677 30.3972,-16.678 30.3975,-16.678 z m 0,68.023 30.397,16.678 -30.397,16.678 -30.397,16.678 -30.3976,-16.678 -30.3972,-16.678 30.3972,-16.678 30.3976,-16.677 z m 0,68.022 30.397,16.68 -30.397,16.68 -30.397,16.67 -30.3976,-16.67 -30.3972,-16.68 30.3972,-16.68 30.3976,-16.677 z m 0,67.84 30.397,16.67 -30.397,16.68 -30.397,16.68 -30.3976,-16.68 -30.3972,-16.68 30.3972,-16.67 30.3976,-16.68 z m 0.98,34.1 30.398,-16.68 30.397,16.68 30.397,16.68 -30.397,16.68 -30.397,16.67 -30.398,-16.67 -30.397,-16.68 z m 61.579,-0.56 -30.397,-16.68 30.397,-16.68 30.397,-16.67 30.202,16.49 30.397,16.67 -30.397,16.68 -30.398,16.68 z m 61.579,0.56 30.397,-16.68 30.398,16.68 30.397,16.68 -30.397,16.68 -30.398,16.67 -30.397,-16.67 -30.397,-16.68 z m 61.775,-0.56 -30.397,-16.68 30.397,-16.86 30.397,-16.68 30.397,16.68 30.398,16.67 -30.398,16.68 -30.397,16.68 z m 61.579,0.56 30.397,-16.68 30.397,16.68 30.398,16.68 -30.398,16.68 -30.397,16.67 -30.397,-16.67 -30.397,-16.68 z m 61.579,-0.56 -30.397,-16.68 30.397,-16.68 30.397,-16.67 30.397,16.67 30.397,16.68 -30.397,16.68 -30.397,16.68 z m 61.579,0.56 30.397,-16.68 30.397,16.68 30.397,16.68 -30.397,16.68 -30.397,16.67 -30.397,-16.67 -30.398,-16.68 z m 61.578,-0.56 -30.397,-16.68 30.397,-16.68 30.398,-16.67 30.397,16.67 30.397,16.68 -30.397,16.68 -30.397,16.68 z m 61.579,0.56 30.398,-16.68 30.397,16.68 30.397,16.68 -30.397,16.68 -30.397,16.67 -30.398,-16.67 -30.397,-16.68 z m 61.579,-0.56 -30.397,-16.68 30.397,-16.68 30.397,-16.67 30.398,16.67 30.397,16.68 -30.397,16.68 -30.398,16.68 z m 61.579,0.56 30.397,-16.68 30.397,16.68 30.398,16.68 -30.398,16.68 -30.397,16.67 -30.397,-16.67 -30.397,-16.68 z m 61.579,-0.56 -30.397,-16.68 30.397,-16.68 30.397,-16.67 30.397,16.67 30.398,16.68 -30.398,16.68 -30.397,16.68 z m 61.579,0.56 30.397,-16.68 30.397,16.68 30.397,16.68 -30.397,16.68 -30.397,16.67 -30.397,-16.67 -30.397,-16.68 z m 61.579,-0.56 -30.398,-16.68 30.398,-16.86 30.397,-16.68 30.402,16.68 30.39,16.67 -30.39,16.68 -30.402,16.68 z m 61.579,0.56 30.4,-16.68 30.39,16.68 30.4,16.68 -30.4,16.68 -30.39,16.67 -30.4,-16.67 -30.398,-16.68 z m 0,-34.67 -30.398,-16.67 30.398,-16.68 30.4,-16.68 30.39,16.68 30.4,16.68 -30.4,16.67 -30.39,16.68 z m 0,-67.83 -30.398,-16.679 30.398,-16.678 30.4,-16.677 30.39,16.677 30.4,16.678 -30.4,16.679 -30.39,16.68 z m 0,-68.024 -30.398,-16.678 30.398,-16.677 30.4,-16.678 30.39,16.678 30.4,16.677 -30.4,16.678 -30.39,16.678 z m 0,-68.023 -30.202,-16.677 30.402,-16.678 30.39,-16.678 30.4,16.678 30.4,16.678 -30.4,16.677 -30.4,16.678 z m 0,-67.835 -30.398,-16.678 30.398,-16.678 30.4,-16.677 30.39,16.677 30.4,16.678 -30.4,16.678 -30.39,16.678 z m 0,-68.023 -30.202,-16.678 30.402,-16.677 30.39,-16.678 30.4,16.678 30.4,16.677 -30.4,16.678 -30.4,16.678 z m -61.579,-135.296 30.397,-16.678 30.402,16.678 30.39,16.678 -30.59,16.678 -30.398,16.677 -30.201,-16.677 -30.398,-16.678 z m -0.981,33.918 30.397,16.677 -30.397,16.678 -30.397,16.678 -30.397,-16.678 -30.398,-16.678 30.398,-16.677 30.397,-16.678 z m -122.177,-33.918 30.397,-16.678 30.397,16.678 30.398,16.678 -30.594,16.678 -30.397,16.677 -30.201,-16.677 -30.397,-16.678 z m -0.981,33.918 30.398,16.677 -30.398,16.678 -30.397,16.678 -30.397,-16.678 -30.397,-16.678 30.397,-16.677 30.397,-16.678 z m -122.177,-33.918 30.397,-16.678 30.398,16.678 30.397,16.678 -30.594,16.678 -30.397,16.677 -30.201,-16.677 -30.397,-16.678 z m -0.98,33.918 30.397,16.677 -30.397,16.678 -30.398,16.678 -30.201,-16.678 -30.397,-16.678 30.397,-16.677 30.398,-16.678 z m -122.178,-33.918 30.398,-16.678 30.397,16.678 30.397,16.678 -30.593,16.678 -30.397,16.677 -30.202,-16.677 -30.397,-16.678 z m -0.98,33.918 30.397,16.677 -30.397,16.678 -30.397,16.678 -30.398,-16.678 -30.397,-16.678 30.397,-16.677 30.398,-16.678 z m -122.177,-33.918 30.397,-16.678 30.397,16.678 30.397,16.678 -30.593,16.678 -30.397,16.677 -30.201,-16.677 -30.397,-16.678 z m -0.981,33.918 30.397,16.677 -30.397,16.678 L 91.052,731.93 60.655,715.252 30.258,698.574 60.655,681.897 91.052,665.219 Z M -0.924,647.979 29.473,631.301 59.87,647.979 90.268,664.657 59.87,681.335 29.473,698.012 -0.924,681.335 -31.321,664.657 Z m -0.981,33.918 30.398,16.677 -30.398,16.678 -30.201,16.865 -30.397,-16.677 -30.397,-16.678 30.397,-16.678 30.397,-16.678 z m -122.177,-33.918 30.397,-16.678 30.398,16.678 30.397,16.678 -30.593,16.678 -30.398,16.677 -30.201,-16.677 -30.397,-16.678 z m -0.98,33.918 30.397,16.677 -30.397,16.678 -30.398,16.678 -30.397,-16.678 -30.397,-16.678 30.397,-16.677 30.397,-16.678 z m -122.1775,-33.918 30.3975,-16.678 30.397,16.678 30.397,16.678 -30.593,16.678 -30.397,16.677 -30.2015,-16.677 -30.3972,-16.678 z m -61.5788,67.273 -30.20114,-16.678 30.39724,-16.677 30.3972,-16.678 30.3972,16.678 30.3968,16.677 -30.3968,16.678 -30.3972,16.678 z m 0,68.023 -30.20114,-16.678 30.39724,-16.677 30.3972,-16.678 30.3972,16.678 30.3968,16.677 -30.3968,16.678 -30.3972,16.678 z m 0,68.023 -30.39726,-16.678 30.39726,-16.678 30.3972,-16.677 30.3972,16.677 30.3969,16.678 -30.3969,16.678 -30.3972,16.678 z m 0,67.835 -30.20114,-16.677 30.39724,-16.678 30.3972,-16.678 30.3972,16.678 30.3968,16.678 -30.3968,16.677 -30.3972,16.678 z m 0,68.023 -30.39726,-16.678 30.39726,-16.677 30.3972,-16.678 30.3972,16.678 30.3969,16.677 -30.3969,16.678 -30.3972,16.678 z m 0,68.024 -30.39726,-16.679 30.39726,-16.678 30.3972,-16.677 30.3972,16.677 30.3969,16.678 -30.3969,16.679 -30.3972,16.68 z m 0,67.83 -30.39726,-16.67 30.39726,-16.68 30.3972,-16.68 30.3972,16.68 30.3969,16.68 -30.3969,16.67 -30.3972,16.68 z m 0,68.03 -30.39726,-16.68 30.39726,-16.68 30.3972,-16.68 30.3972,16.68 30.3969,16.68 -30.593,16.68 -30.3973,16.67 z m 60.5983,68.02 -30.3973,16.68 -30.3972,-16.68 -30.39717,-16.68 30.39717,-16.68 30.3972,-16.67 30.3973,16.67 30.397,16.68 z m 0.9805,-34.11 -30.3972,-16.67 30.3972,-16.68 30.3975,-16.68 30.397,16.68 30.397,16.68 -30.397,16.67 -30.397,16.68 z m 122.1775,34.11 -30.398,16.68 -30.397,-16.68 -30.397,-16.68 30.397,-16.68 30.397,-16.67 30.398,16.67 30.397,16.68 z m 0.98,-34.11 -30.397,-16.67 30.397,-16.68 30.397,-16.68 30.398,16.68 30.397,16.68 -30.397,16.67 -30.398,16.68 z m 122.374,34.11 -30.398,16.68 -30.397,-16.68 -30.397,-16.68 30.397,-16.68 30.397,-16.67 30.398,16.67 30.397,16.68 z m 0.98,-34.11 -30.397,-16.67 30.397,-16.68 30.397,-16.68 30.397,16.68 30.398,16.68 -30.398,16.67 -30.397,16.68 z m 122.177,34.11 -30.397,16.68 -30.397,-16.68 -30.397,-16.68 30.397,-16.68 30.397,-16.67 30.397,16.67 30.397,16.68 z m 0.981,-34.11 -30.397,-16.67 30.397,-16.68 30.397,-16.68 30.397,16.68 30.397,16.68 -30.397,16.67 -30.397,16.68 z m 122.177,34.11 -30.397,16.68 -30.398,-16.68 -30.397,-16.68 30.397,-16.68 30.398,-16.67 30.397,16.67 30.397,16.68 z m 0.98,-34.11 -30.397,-16.67 30.397,-16.68 30.398,-16.68 30.397,16.68 30.397,16.68 -30.397,16.67 -30.397,16.68 z m 122.178,34.11 -30.398,16.68 -30.397,-16.68 -30.397,-16.68 30.397,-16.68 30.397,-16.67 30.398,16.67 30.397,16.68 z m 0.98,-34.11 -30.397,-16.67 30.397,-16.68 30.397,-16.68 30.398,16.68 30.397,16.68 -30.397,16.67 -30.398,16.68 z m 122.177,34.11 -30.397,16.68 -30.397,-16.68 -30.397,-16.68 30.397,-16.68 30.397,-16.67 30.397,16.67 30.398,16.68 z m 0.981,-34.11 -30.397,-16.67 30.397,-16.68 30.397,-16.68 30.397,16.68 30.398,16.68 -30.398,16.67 -30.397,16.68 z m 122.177,34.11 -30.397,16.68 -30.397,-16.68 -30.398,-16.68 30.398,-16.68 30.397,-16.67 30.397,16.67 30.397,16.68 z m 0.981,-34.11 -30.398,-16.67 30.398,-16.68 30.397,-16.68 30.402,16.68 30.39,16.68 -30.39,16.67 -30.402,16.68 z m 122.179,34.11 -30.4,16.68 -30.4,-16.68 -30.394,-16.68 30.394,-16.68 30.4,-16.67 30.4,16.67 30.4,16.68 z m 61.77,-67.46 30.4,16.68 -30.4,16.67 -30.39,16.68 -30.4,-16.68 -30.4,-16.67 30.4,-16.68 30.4,-16.68 z m -0.19,-68.02 30.39,16.67 -30.39,16.68 -30.4,16.68 -30.4,-16.68 -30.4,-16.68 30.4,-16.67 30.4,-16.68 z m 0,-67.84 30.39,16.68 -30.39,16.68 -30.4,16.67 -30.4,-16.67 -30.4,-16.68 30.4,-16.68 30.4,-16.677 z m 0,-68.022 30.39,16.678 -30.39,16.678 -30.4,16.678 -30.4,-16.678 -30.4,-16.678 30.4,-16.678 30.4,-16.677 z m 0,-68.023 30.39,16.678 -30.39,16.678 -30.4,16.678 -30.4,-16.678 -30.4,-16.678 30.4,-16.678 30.4,-16.677 z m 0,-67.835 30.39,16.678 -30.39,16.678 -30.4,16.677 -30.4,-16.677 -30.4,-16.678 30.4,-16.678 30.4,-16.678 z m 0,-68.023 30.39,16.678 -30.39,16.678 -30.4,16.678 -30.4,-16.678 -30.4,-16.678 30.4,-16.678 30.4,-16.678 z m 0,-68.023 30.39,16.678 -30.39,16.678 -30.4,16.678 -30.4,-16.678 -30.4,-16.678 30.4,-16.678 30.4,-16.677 z m 0,-34.479 -30.4,16.677 -30.2,-16.677 -30.4,-16.678 30.4,-16.678 30.4,-16.678 30.39,16.678 30.4,16.678 z"
     fill="url(#paint0_radial_46_394)"
     fill-opacity="0.9"
     id="path2"
     style="fill:url(#paint0_radial_46_394)" />
  <path
     opacity="0.1"
     d="M 799.8,36.07992 769.6,19.4022 799.8,2.537 803.33,0.6631 h -1.96 l -2.55,1.3117 -30.4,16.6778 -30.4,-16.6778 -2.35,-1.3117 h -1.96 l 3.53,1.8739 30.4,16.6778 -30.4,16.67773 L 706.84,52.5703 676.44,35.89253 646.438,19.4022 676.64,2.537 680.17,0.6631 h -1.96 L 675.66,1.9748 645.262,18.6526 615.061,1.9748 612.511,0.6631 H 610.55 L 614.08,2.537 644.477,19.4022 614.08,36.07992 583.683,52.7577 553.286,36.07992 523.281,19.4022 553.482,2.537 l 3.53,-1.8739 h -1.961 l -2.55,1.3117 -30.397,16.6778 -30.397,-16.6778 -2.354,-1.3117 h -1.961 L 490.922,2.537 521.32,19.2148 490.922,35.89253 460.525,52.5703 430.128,35.89253 399.927,19.4022 430.324,2.537 l 3.53,-1.8739 h -1.961 l -2.55,1.3117 -30.397,16.6778 -30.397,-16.6778 -2.353,-1.3117 h -1.961 l 3.53,1.8739 30.397,16.6778 L 367.765,35.89253 337.367,52.5703 307.166,36.07992 276.769,19.4022 307.166,2.537 l 3.53,-1.8739 h -1.961 L 306.186,1.9748 275.789,18.84 245.391,2.1622 243.038,0.6631 h -1.961 l 3.53,1.8739 30.397,16.6778 L 244.607,35.89253 214.21,52.5703 183.812,35.89253 153.611,19.4022 184.009,2.537 l 3.53,-1.8739 h -1.961 L 183.028,1.9748 152.631,18.6526 122.234,1.9748 119.88,0.6631 h -1.961 l 3.53,1.8739 30.397,16.6778 L 121.449,35.89253 91.052,52.5703 60.655,35.89253 30.454,19.4022 60.851,2.537 64.381,0.6631 H 62.42 L 59.87,1.9748 29.473,18.6526 -0.924,1.9748 -3.277,0.6631 H -5.238 L -1.708,2.537 28.689,19.2148 -1.708,35.89253 -32.106,52.7577 -62.503,36.07992 -92.9,19.4022 -62.503,2.537 l 3.53,-1.8739 h -1.961 l -2.549,1.3117 -30.398,16.6778 -30.397,-16.6778 -2.157,-1.3117 h -1.961 l 3.53,1.8739 30.397,16.6778 -30.397,16.67773 -30.397,16.67777 -30.398,-16.67777 -30.201,-16.67773 30.201,-16.6778 3.53,-1.8739 h -1.961 l -2.549,1.3117 -30.201,16.8652 -30.3975,-16.8652 -2.5494,-1.3117 h -1.9611 l 3.53,1.8739 30.397,16.6778 -30.397,16.67773 -30.3973,16.67777 -30.3972,-16.67777 -30.00495,-16.67773 30.20115,-16.6778 3.53,-1.8739 h -1.9612 L -309.7989,1.9748 -340,18.6526 v 1.1243 l 30.2011,16.6778 30.3972,16.6778 -30.3972,16.8651 L -340,86.6754 v 1.1244 l 30.2011,16.6777 30.3972,16.6778 -30.3972,16.6778 L -340,154.698 v 1.125 l 30.2011,16.677 30.3972,16.678 -30.3972,16.678 L -340,222.534 v 1.124 l 30.2011,16.678 30.3972,16.678 -30.3972,16.677 L -340,290.556 v 1.125 l 30.2011,16.678 30.3972,16.677 -30.3972,16.678 L -340,358.579 v 1.125 l 30.2011,16.677 30.3972,16.678 -30.3972,16.678 L -340,426.415 v 1.124 l 30.2011,16.678 30.3972,16.678 -30.3972,16.677 L -340,494.438 v 1.124 l 30.2011,16.678 30.3972,16.677 -30.3972,16.678 L -340,562.46 v 1.125 l 30.2011,16.677 30.3972,16.678 -30.3972,16.678 L -340,630.296 v 1.124 l 30.2011,16.678 30.3972,16.678 -20.0033,11.056 h 1.9611 l 19.0228,-10.494 19.0227,10.494 h 1.9611 l -20.0033,-11.056 30.3972,-16.678 30.3974,-16.678 30.397,16.678 30.397,16.678 -20.003,11.056 h 1.961 l 19.023,-10.494 19.023,10.494 h 1.961 l -20.004,-11.056 30.398,-16.678 30.397,-16.678 30.397,16.678 30.397,16.678 -20.003,11.056 h 1.961 l 19.023,-10.494 19.023,10.494 h 1.961 l -20.004,-11.056 30.397,-16.678 30.398,-16.678 30.397,16.678 30.397,16.678 -20.003,11.056 h 1.961 l 19.023,-10.494 19.022,10.494 h 1.962 l -20.004,-11.056 30.397,-16.678 30.398,-16.678 30.397,16.678 30.397,16.678 -20.003,11.056 h 1.961 l 19.023,-10.494 19.022,10.494 h 1.962 l -20.004,-11.056 30.397,-16.678 30.398,-16.678 30.397,16.678 30.397,16.678 -20.003,11.056 h 1.961 l 19.023,-10.494 19.022,10.494 h 1.961 l -20.003,-11.056 30.397,-16.678 30.398,-16.678 30.397,16.678 30.397,16.678 -20.003,11.056 h 1.961 l 19.022,-10.494 19.023,10.494 h 1.961 l -20.003,-11.056 30.397,-16.678 30.397,-16.678 30.398,16.678 30.397,16.678 -20.003,11.056 h 1.961 l 19.022,-10.494 19.023,10.494 h 1.961 l -20.003,-11.056 30.397,-16.678 30.397,-16.678 30.397,16.678 30.4,16.678 -20.01,11.056 h 1.97 l 19.02,-10.494 19.02,10.494 h 1.96 l -20,-11.056 30.4,-16.678 30.39,-16.678 30.4,16.678 30.4,16.678 -20.01,11.056 h 1.97 l 19.02,-10.494 6.47,3.56 v -1.124 l -5.49,-2.998 5.49,-2.999 v -1.124 l -6.47,3.561 -30.4,-16.678 -30.4,-16.678 30.4,-16.678 30.4,-16.678 6.47,3.561 v -1.125 l -5.49,-2.998 5.49,-2.998 v -1.124 l -6.47,3.56 -30.4,-16.678 -30.4,-16.677 30.4,-16.678 30.4,-16.678 6.47,3.56 v -1.124 l -5.49,-2.998 5.49,-2.998 v -1.125 l -6.47,3.561 -30.4,-16.678 -30.4,-16.678 30.4,-16.678 30.4,-16.677 6.47,3.56 v -1.124 l -5.49,-2.999 5.49,-2.998 v -1.124 l -6.47,3.56 -30.4,-16.678 -30.4,-16.677 30.4,-16.678 30.4,-16.678 6.47,3.561 v -1.5 l -5.49,-2.998 5.49,-2.998 v -1.124 l -6.47,3.56 -30.4,-16.678 -30.4,-16.678 30.4,-16.677 30.4,-16.678 6.47,3.56 v -1.124 l -5.49,-2.998 5.49,-2.999 v -1.124 l -6.47,3.561 -30.4,-16.678 -30.4,-16.678 30.4,-16.678 30.4,-16.677 6.47,3.56 v -1.124 l -5.49,-2.999 5.49,-2.998 v -1.124 l -6.47,3.56 -30.4,-16.678 -30.4,-16.677 30.4,-16.678 30.4,-16.678 6.47,3.56 v -1.124 l -5.49,-2.998 2.16,-3.373 v -1.124 l -6.48,3.56 -30.39,-16.678 -30.4,-16.678 30.4,-16.6774 30.39,-16.6778 6.48,3.5605 v -1.1244 l -5.5,-2.9982 5.5,-2.9983 v -1.1243 l -6.48,3.5604 -30.39,-16.6778 -30.4,-16.6777 30.4,-16.6778 30.39,-16.6778 6.48,3.5604 v -1.1243 l -5.5,-2.9982 5.5,-2.99829 v -1.12435 l -6.48,3.56044 z m -62.56,34.47988 30.4,16.6778 -30.4,16.6777 -30.4,16.6778 -30.4,-16.6778 L 646.438,87.2376 676.84,70.5598 707.23,53.882 Z M -0.728,341.902 l -30.397,-16.678 30.397,-16.678 30.397,-16.678 30.397,16.678 30.398,16.678 -30.398,16.678 -30.397,16.677 z m 29.221,17.239 -30.398,16.678 -30.397,16.678 -30.397,-16.678 -30.397,-16.678 30.397,-16.677 30.397,-16.678 30.397,16.678 z m 32.358,-16.677 30.397,-16.678 30.397,16.678 30.398,16.677 -30.398,16.678 -30.397,16.678 -30.397,-16.678 -30.397,-16.678 z m 61.579,-0.562 -30.397,-16.678 30.397,-16.678 30.397,-16.678 30.397,16.678 30.397,16.678 -30.397,16.678 -30.397,16.677 z m 61.579,0.562 30.397,-16.678 30.397,16.678 30.397,16.677 -30.397,16.678 -30.397,16.678 -30.397,-16.678 -30.398,-16.678 z m 61.578,-0.562 -30.397,-16.678 30.397,-16.678 30.398,-16.678 30.397,16.678 30.397,16.678 -30.397,16.678 -30.593,16.677 z m 61.579,0.562 30.398,-16.678 30.397,16.678 30.397,16.677 -30.397,16.678 -30.397,16.678 -30.398,-16.678 -30.397,-16.678 z m 61.579,-0.562 -30.397,-16.678 30.397,-16.678 30.397,-16.678 30.398,16.678 30.397,16.678 -30.397,16.678 -30.398,16.677 z m 61.579,0.562 30.397,-16.678 30.397,16.678 30.398,16.677 -30.398,16.678 -30.397,16.678 -30.397,-16.678 -30.397,-16.678 z m 61.579,-0.562 -30.397,-16.678 30.397,-16.678 30.397,-16.678 30.397,16.678 30.398,16.678 -30.398,16.678 -30.397,16.677 z m 0,-68.023 -30.397,-16.678 30.397,-16.678 30.397,-16.678 30.397,16.678 30.398,16.678 -30.398,16.678 -30.397,16.677 z m -0.981,0.562 30.398,16.678 -30.398,16.677 -30.397,16.678 -30.397,-16.678 -30.397,-16.677 30.397,-16.678 30.397,-16.678 z m -61.579,-0.562 -30.397,16.677 -30.397,-16.677 -30.397,-16.678 30.397,-16.678 30.397,-16.678 30.397,16.678 30.398,16.678 z m -61.578,0.562 30.397,16.678 -30.397,16.677 -30.398,16.678 -30.397,-16.678 -30.397,-16.677 30.397,-16.678 30.397,-16.678 z m -61.579,-0.562 -30.397,16.677 -30.398,-16.677 -30.397,-16.678 30.397,-16.678 30.398,-16.865 30.397,16.678 30.397,16.678 z m -61.579,0.562 30.397,16.678 -30.397,16.677 -30.397,16.678 -30.398,-16.678 -30.397,-16.677 30.397,-16.678 30.398,-16.678 z m -61.579,-0.562 -30.397,16.677 -30.397,-16.677 -30.398,-16.678 30.398,-16.678 30.397,-16.678 30.397,16.678 30.397,16.678 z m -61.579,0.562 30.397,16.678 -30.397,16.677 L 91.052,324.474 60.655,307.796 30.258,291.119 60.655,274.441 91.052,257.763 Z M 59.87,273.879 29.473,290.556 -0.924,273.879 -31.321,257.201 -0.924,240.523 29.473,223.845 59.87,240.523 90.268,257.201 Z m -61.775,0.562 30.398,16.678 -30.398,16.677 -30.397,16.678 -30.397,-16.678 -30.397,-16.677 30.397,-16.678 30.397,-16.678 z m -61.578,-0.562 -30.398,16.677 -30.397,-16.677 -30.397,-16.678 30.397,-16.678 30.397,-16.678 30.398,16.678 30.397,16.678 z m 0,34.48 30.397,16.677 -30.397,16.678 -30.398,16.678 -30.397,-16.678 -30.397,-16.678 30.397,-16.677 30.397,-16.678 z m 0,68.022 30.397,16.678 -30.397,16.678 -30.398,16.678 -30.397,-16.678 -30.397,-16.678 30.397,-16.678 30.397,-16.677 z m 0.98,33.918 30.397,-16.678 30.398,16.678 30.397,16.678 -30.397,16.678 -30.398,16.677 -30.397,-16.677 -30.397,-16.678 z m 61.775,-0.562 -30.397,-16.678 30.397,-16.678 30.397,-16.677 30.397,16.677 30.398,16.678 -30.398,16.678 -30.397,16.678 z m 61.579,0.562 30.397,-16.678 30.397,16.678 30.398,16.678 -30.398,16.678 -30.397,16.677 -30.397,-16.677 -30.397,-16.678 z m 61.579,-0.562 -30.397,-16.678 30.397,-16.678 30.397,-16.677 30.397,16.677 30.397,16.678 -30.397,16.678 -30.397,16.678 z m 61.579,0.562 30.397,-16.678 30.397,16.678 30.397,16.678 -30.397,16.678 -30.397,16.677 -30.397,-16.677 -30.398,-16.678 z m 61.578,-0.562 -30.397,-16.678 30.397,-16.678 30.398,-16.677 30.397,16.677 30.397,16.678 -30.397,16.678 -30.397,16.678 z m 61.579,0.562 30.398,-16.678 30.397,16.678 30.397,16.678 -30.397,16.678 -30.397,16.677 -30.398,-16.677 -30.397,-16.678 z m 61.579,-0.562 -30.397,-16.678 30.397,-16.678 30.397,-16.677 30.398,16.677 30.397,16.678 -30.397,16.678 -30.398,16.678 z m 61.579,0.562 30.397,-16.678 30.397,16.678 30.398,16.678 -30.398,16.678 -30.397,16.677 -30.397,-16.677 -30.397,-16.678 z m 61.579,-0.562 -30.397,-16.678 30.397,-16.678 30.397,-16.677 30.397,16.677 30.398,16.678 -30.398,16.678 -30.397,16.678 z m 61.579,0.562 30.397,-16.678 30.397,16.678 30.397,16.678 -30.397,16.678 -30.397,16.677 -30.397,-16.677 -30.397,-16.678 z m 0,-34.48 -30.397,-16.678 30.397,-16.677 30.397,-16.678 30.397,16.678 30.397,16.677 -30.397,16.678 -30.397,16.678 z m 0,-68.023 -30.397,-16.677 30.397,-16.678 30.397,-16.678 30.397,16.678 30.201,16.678 -30.397,16.677 -30.397,16.678 z m 0,-67.835 -30.397,-16.678 30.397,-16.678 30.397,-16.677 30.397,16.677 30.397,16.678 -30.397,16.678 -30.397,16.678 z m -0.981,-34.105 -30.397,16.678 -30.397,-16.678 -30.397,-16.678 30.397,-16.678 30.397,-16.677 30.397,16.677 30.397,16.678 z m -61.579,0.562 30.398,16.678 -30.398,16.678 -30.397,16.677 -30.397,-16.677 -30.397,-16.678 30.397,-16.678 30.397,-16.678 z m -61.579,-0.562 -30.397,16.678 -30.397,-16.678 -30.397,-16.678 30.397,-16.678 30.397,-16.677 30.397,16.677 30.398,16.678 z m -61.578,0.562 30.397,16.678 -30.397,16.678 -30.398,16.677 -30.397,-16.677 -30.397,-16.678 30.397,-16.678 30.397,-16.678 z m -61.579,-0.562 -30.397,16.678 -30.398,-16.678 -30.397,-16.678 30.397,-16.678 30.398,-16.677 30.397,16.677 30.397,16.678 z m -61.579,0.562 30.397,16.678 -30.397,16.678 -30.397,16.677 -30.398,-16.677 -30.397,-16.678 30.397,-16.678 30.398,-16.678 z m -61.579,-0.562 -30.397,16.678 -30.397,-16.678 -30.398,-16.678 30.398,-16.678 30.397,-16.677 30.397,16.677 30.397,16.678 z m -61.579,0.562 30.397,16.678 -30.397,16.678 L 91.052,256.451 60.655,239.774 30.258,223.096 60.655,206.418 91.052,189.74 Z M 59.87,205.856 29.473,222.534 -0.924,205.856 -31.321,189.178 -0.924,172.5 29.473,155.823 59.87,172.5 90.268,189.178 Z m -61.775,0.562 30.398,16.678 -30.398,16.678 -30.397,16.677 -30.397,-16.677 -30.397,-16.678 30.397,-16.678 30.397,-16.678 z m -61.578,-0.562 -30.398,16.678 -30.397,-16.678 -30.397,-16.678 30.397,-16.678 30.397,-16.677 30.398,16.677 30.397,16.678 z m -61.579,0.562 30.397,16.678 -30.397,16.678 -30.398,16.677 -30.397,-16.677 -30.397,-16.678 30.397,-16.678 30.397,-16.678 z m 0,68.023 30.397,16.678 -30.397,16.677 -30.398,16.678 -30.397,-16.678 -30.005,-16.677 30.397,-16.678 30.398,-16.678 z m 0,68.023 30.397,16.677 -30.397,16.678 -30.398,16.678 -30.397,-16.678 -30.397,-16.678 30.397,-16.677 30.397,-16.678 z m 0,67.835 30.397,16.678 -30.397,16.678 -30.398,16.677 -30.397,-16.677 -30.397,-16.678 30.397,-16.678 30.397,-16.678 z m 0,68.023 30.397,16.678 -30.397,16.677 -30.398,16.678 -30.397,-16.678 -30.397,-16.677 30.397,-16.678 30.397,-16.678 z m 0.98,-0.562 -30.397,-16.678 30.397,-16.678 30.397,-16.678 30.398,16.678 30.397,16.678 -30.397,16.678 -30.398,16.678 z m 61.579,0.562 30.397,-16.678 30.398,16.678 L 28.689,495 -1.708,511.677 -32.106,528.355 -62.503,511.677 -92.9,495 Z m 61.775,-0.562 -30.397,-16.678 30.397,-16.678 30.397,-16.678 30.397,16.678 30.398,16.678 -30.398,16.678 -30.397,16.678 z m 61.579,0.562 30.397,-16.678 30.397,16.678 L 152.043,495 121.645,511.677 91.248,528.355 60.851,511.677 30.454,495 Z m 61.579,-0.562 -30.397,-16.678 30.397,-16.678 30.397,-16.678 30.397,16.678 30.397,16.678 -30.397,16.678 -30.397,16.678 z m 61.579,0.562 30.397,-16.678 30.397,16.678 L 275.2,495 244.803,511.677 214.406,528.355 184.009,511.677 153.611,495 Z m 61.578,-0.562 -30.397,-16.678 30.397,-16.678 30.398,-16.678 30.397,16.678 30.397,16.678 -30.397,16.678 -30.397,16.678 z m 61.579,0.562 30.398,-16.678 30.397,16.678 L 398.358,495 367.961,511.677 337.564,528.355 307.166,511.677 276.769,495 Z m 61.579,-0.562 -30.397,-16.678 30.397,-16.678 30.397,-16.678 30.398,16.678 30.397,16.678 -30.397,16.678 -30.398,16.678 z m 61.579,0.562 30.397,-16.678 30.397,16.678 L 521.516,495 491.118,511.677 460.721,528.355 430.324,511.677 399.927,495 Z m 61.579,-0.562 -30.397,-16.678 30.397,-16.678 30.397,-16.678 30.397,16.678 30.398,16.678 -30.398,16.678 -30.397,16.678 z m 61.579,0.562 30.397,-16.678 30.397,16.678 L 644.673,495 614.276,511.677 583.879,528.355 553.482,511.677 523.085,495 Z m 61.579,-0.562 -30.398,-16.678 30.398,-16.678 30.397,-16.678 30.402,16.678 30.39,16.678 -30.39,16.678 -30.402,16.678 z m 0,-68.023 -30.398,-16.678 30.398,-16.678 30.397,-16.677 30.402,16.677 30.39,16.678 -30.39,16.678 -30.402,16.678 z m 0,-67.835 -30.398,-16.678 30.398,-16.678 30.397,-16.678 30.402,16.678 30.39,16.678 -30.39,16.678 -30.402,16.677 z m 0,-68.023 -30.398,-16.678 30.398,-16.678 30.397,-16.678 30.402,16.678 30.39,16.678 -30.39,16.678 -30.402,16.677 z m 0,-68.023 -30.398,-16.678 30.398,-16.678 30.397,-16.677 30.402,16.677 30.39,16.678 -30.39,16.678 -30.402,16.678 z m 0,-67.8355 -30.398,-16.6778 30.398,-16.6778 30.397,-16.6778 30.402,16.6778 30.39,16.6778 -30.39,16.6778 -30.402,16.6775 z m -0.981,0.5621 30.397,16.6774 -30.397,16.678 -30.397,16.678 -30.397,-16.678 -30.398,-16.678 30.398,-16.6774 30.397,-16.6778 z m -61.579,-0.5621 -30.397,16.6775 -30.397,-16.6775 -30.397,-16.6778 30.397,-16.6778 30.397,-16.6778 30.397,16.6778 30.397,16.6778 z m -61.579,0.5621 30.398,16.6774 -30.398,16.678 -30.397,16.678 -30.397,-16.678 -30.397,-16.678 30.397,-16.6774 30.397,-16.6778 z m -61.579,-0.5621 -30.397,16.6775 -30.397,-16.6775 -30.397,-16.6778 30.397,-16.6778 30.397,-16.6778 30.397,16.6778 30.398,16.6778 z m -61.578,0.5621 30.397,16.6774 -30.397,16.678 -30.398,16.678 -30.201,-16.678 -30.397,-16.678 30.397,-16.6774 30.398,-16.6778 z m -61.579,-0.5621 -30.397,16.6775 -30.398,-16.6775 -30.397,-16.6778 30.397,-16.6778 30.398,-16.6778 30.397,16.6778 30.397,16.6778 z m -61.579,0.5621 30.397,16.6774 -30.397,16.678 -30.397,16.678 -30.398,-16.678 -30.397,-16.678 30.397,-16.6774 30.398,-16.6778 z m -61.579,-0.5621 -30.397,16.6775 -30.397,-16.6775 -30.398,-16.6778 30.398,-16.6778 30.397,-16.6778 30.397,16.6778 30.397,16.6778 z m -61.579,0.5621 30.397,16.6774 -30.397,16.678 L 91.052,188.616 60.655,171.938 30.258,155.26 60.655,138.5826 91.052,121.9048 Z M 59.87,138.0205 29.473,154.698 -0.924,138.0205 -31.321,121.3427 -0.924,104.6649 29.473,87.9871 59.87,104.6649 90.268,121.3427 Z m -61.775,0.5621 30.398,16.6774 -30.398,16.678 -30.397,16.678 -30.397,-16.678 -30.397,-16.678 30.397,-16.6774 30.397,-16.6778 z m -61.578,-0.5621 -30.398,16.6775 -30.397,-16.6775 -30.397,-16.6778 30.397,-16.6778 30.397,-16.6778 30.398,16.6778 30.397,16.6778 z m -61.579,0.5621 30.397,16.6774 -30.397,16.678 -30.398,16.678 -30.397,-16.678 -30.397,-16.678 30.397,-16.6774 30.397,-16.6778 z m -61.579,-0.5621 -30.397,16.6775 -30.3976,-16.6775 -30.3972,-16.6778 30.3972,-16.6778 30.3976,-16.6778 30.397,16.6778 30.397,16.6778 z m 0,34.4795 30.397,16.678 -30.397,16.678 -30.397,16.678 -30.3976,-16.678 -30.3972,-16.678 30.3972,-16.678 30.3976,-16.677 z m 0,68.023 30.397,16.678 -30.397,16.678 -30.397,16.677 -30.3976,-16.677 -30.3972,-16.678 30.3972,-16.678 30.3976,-16.678 z m 0,67.836 30.397,16.677 -30.397,16.678 -30.201,16.865 -30.3975,-16.677 -30.3972,-16.678 30.3972,-16.678 30.3975,-16.678 z m 0,68.022 30.397,16.678 -30.397,16.678 -30.397,16.678 -30.3976,-16.678 -30.3972,-16.678 30.3972,-16.678 30.3976,-16.677 z m 0,68.023 30.397,16.678 -30.397,16.678 -30.397,16.678 -30.3976,-16.678 -30.3972,-16.678 30.3972,-16.678 30.3976,-16.678 z m 0,67.836 30.397,16.677 -30.397,16.678 -30.397,16.678 -30.3976,-16.678 -30.3972,-16.678 30.3972,-16.677 30.3976,-16.678 z m 0.98,34.105 30.398,-16.678 30.397,16.678 30.397,16.678 -30.397,16.677 -30.397,16.678 -30.398,-16.678 -30.397,-16.677 z m 61.579,-0.562 -30.397,-16.678 30.397,-16.678 30.397,-16.678 30.202,16.491 30.397,16.677 -30.397,16.678 -30.398,16.678 z m 61.579,0.562 30.397,-16.678 30.398,16.678 30.397,16.678 L -1.708,579.7 -32.106,596.378 -62.503,579.7 -92.9,563.023 Z m 61.775,-0.562 -30.397,-16.678 30.397,-16.865 30.397,-16.678 30.397,16.678 30.398,16.677 -30.398,16.678 -30.397,16.678 z m 61.579,0.562 30.397,-16.678 30.397,16.678 30.398,16.678 L 121.645,579.7 91.248,596.378 60.851,579.7 30.454,563.023 Z m 61.579,-0.562 -30.397,-16.678 30.397,-16.678 30.397,-16.678 30.397,16.678 30.397,16.678 -30.397,16.678 -30.397,16.677 z m 61.579,0.562 30.397,-16.678 30.397,16.678 30.397,16.678 -30.397,16.677 -30.397,16.678 -30.397,-16.678 -30.398,-16.677 z m 61.578,-0.562 -30.397,-16.678 30.397,-16.678 30.398,-16.678 30.397,16.678 30.397,16.678 -30.397,16.678 -30.397,16.677 z m 61.579,0.562 30.398,-16.678 30.397,16.678 30.397,16.678 -30.397,16.677 -30.397,16.678 -30.398,-16.678 -30.397,-16.677 z m 61.579,-0.562 -30.397,-16.678 30.397,-16.678 30.397,-16.678 30.398,16.678 30.397,16.678 -30.397,16.678 -30.398,16.677 z m 61.579,0.562 30.397,-16.678 30.397,16.678 30.398,16.678 -30.398,16.677 -30.397,16.678 -30.397,-16.678 -30.397,-16.677 z m 61.579,-0.562 -30.397,-16.678 30.397,-16.678 30.397,-16.678 30.397,16.678 30.398,16.678 -30.398,16.678 -30.397,16.677 z m 61.579,0.562 30.397,-16.678 30.397,16.678 30.397,16.678 -30.397,16.677 -30.397,16.678 -30.397,-16.678 -30.397,-16.677 z m 61.579,-0.562 -30.398,-16.678 30.398,-16.865 30.397,-16.678 30.402,16.678 30.39,16.677 -30.39,16.678 -30.402,16.678 z m 61.579,0.562 30.4,-16.678 30.39,16.678 30.4,16.678 -30.4,16.677 -30.39,16.678 -30.4,-16.678 -30.398,-16.677 z m 0,-34.668 -30.398,-16.677 30.398,-16.678 30.4,-16.678 30.39,16.678 30.4,16.678 -30.4,16.677 -30.39,16.678 z m 0,-67.835 -30.398,-16.678 30.398,-16.678 30.4,-16.677 30.39,16.677 30.4,16.678 -30.4,16.678 -30.39,16.678 z m 0,-68.023 -30.398,-16.678 30.398,-16.677 30.4,-16.678 30.39,16.678 30.4,16.677 -30.4,16.678 -30.39,16.678 z m 0,-68.023 -30.202,-16.677 30.402,-16.678 30.39,-16.678 30.4,16.678 30.4,16.678 -30.4,16.677 -30.4,16.678 z m 0,-67.835 -30.398,-16.678 30.398,-16.678 30.4,-16.677 30.39,16.677 30.4,16.678 -30.4,16.678 -30.39,16.678 z m 0,-68.023 -30.202,-16.678 30.402,-16.6774 30.39,-16.6778 30.4,16.6778 30.4,16.6774 -30.4,16.678 -30.4,16.678 z M 615.061,36.6421 645.458,19.9643 675.86,36.6421 706.25,53.3199 675.66,69.9976 645.262,86.6754 615.061,69.9976 584.663,53.3199 Z M 614.08,70.5598 644.477,87.2376 614.08,103.9153 583.683,120.5931 553.286,103.9153 522.888,87.2376 553.286,70.5598 583.683,53.882 Z M 491.903,36.6421 522.3,19.9643 552.697,36.6421 583.095,53.3199 552.501,69.9976 522.104,86.6754 491.903,69.9976 461.506,53.3199 Z m -0.981,33.9177 30.398,16.6778 -30.398,16.6777 -30.397,16.6778 L 430.128,103.9153 399.731,87.2376 430.128,70.5598 460.525,53.882 Z M 368.745,36.6421 399.142,19.9643 429.54,36.6421 459.937,53.3199 429.343,69.9976 398.946,86.6754 368.745,69.9976 338.348,53.3199 Z m -0.98,33.9177 30.397,16.6778 -30.397,16.6777 -30.398,16.6778 L 307.166,103.9153 276.769,87.2376 307.166,70.5598 337.564,53.882 Z M 245.587,36.6421 275.985,19.9643 306.382,36.6421 336.779,53.3199 306.186,69.9976 275.789,86.6754 245.587,69.9976 215.19,53.3199 Z m -0.98,33.9177 30.397,16.6778 -30.397,16.6777 L 214.21,120.5931 183.812,103.9153 153.415,87.2376 183.812,70.5598 214.21,53.882 Z M 122.43,36.6421 152.827,19.9643 183.224,36.6421 213.621,53.3199 183.028,69.9976 152.631,86.6754 122.43,69.9976 92.033,53.3199 Z m -0.981,33.9177 30.397,16.6778 -30.397,16.6777 L 91.052,120.5931 60.655,103.9153 30.258,87.2376 60.655,70.5598 91.052,53.882 Z M -0.924,36.6421 29.473,19.9643 59.87,36.6421 90.268,53.3199 59.87,69.9976 29.473,86.6754 -0.924,69.9976 -31.321,53.3199 Z M -1.905,70.5598 28.493,87.2376 -1.905,103.9153 -32.106,120.7805 -62.503,104.1027 -92.9,87.425 -62.503,70.7472 -32.106,54.0694 Z m -122.177,-33.9177 30.397,-16.6778 30.398,16.6778 30.397,16.6778 -30.593,16.6777 -30.398,16.6778 -30.201,-16.6778 -30.397,-16.6777 z m -0.98,33.9177 30.397,16.6778 -30.397,16.6777 -30.398,16.6778 -30.397,-16.6778 -30.397,-16.6777 30.397,-16.6778 30.397,-16.6778 z m -122.1775,-33.9177 30.3975,-16.6778 30.397,16.6778 30.397,16.6778 -30.593,16.6777 -30.397,16.6778 -30.2015,-16.6778 -30.3972,-16.6777 z m -61.5788,67.2732 -30.20115,-16.6777 30.39725,-16.6778 30.3972,-16.6778 30.3972,16.6778 30.3968,16.6778 -30.3968,16.6777 -30.3972,16.6778 z m 0,68.0227 -30.20115,-16.678 30.39725,-16.6774 30.3972,-16.6778 30.3972,16.6778 30.3968,16.6774 -30.3968,16.678 -30.3972,16.678 z m 0,68.023 -30.39726,-16.678 30.39726,-16.678 30.3972,-16.677 30.3972,16.677 30.3969,16.678 -30.3969,16.678 -30.3972,16.678 z m 0,67.835 -30.20114,-16.677 30.39724,-16.678 30.3972,-16.678 30.3972,16.678 30.3968,16.678 -30.3968,16.677 -30.3972,16.678 z m 0,68.023 -30.39726,-16.678 30.39726,-16.677 30.3972,-16.678 30.3972,16.678 30.3969,16.677 -30.3969,16.678 -30.3972,16.678 z m 0,68.023 -30.39726,-16.678 30.39726,-16.678 30.3972,-16.677 30.3972,16.677 30.3969,16.678 -30.3969,16.678 -30.3972,16.678 z m 0,67.835 -30.39726,-16.677 30.39726,-16.678 30.3972,-16.678 30.3972,16.678 30.3969,16.678 -30.3969,16.677 -30.3972,16.678 z m 0,68.023 -30.39726,-16.677 30.39726,-16.678 30.3972,-16.678 30.3972,16.678 30.3969,16.678 -30.593,16.677 -30.3973,16.678 z m 60.5983,68.023 -30.3973,16.678 -30.3972,-16.678 -30.39717,-16.678 30.39717,-16.677 30.3972,-16.678 30.3973,16.678 30.397,16.677 z m 0.9805,-34.105 -30.3972,-16.678 30.3972,-16.678 30.3975,-16.677 30.397,16.677 30.397,16.678 -30.397,16.678 -30.397,16.678 z m 122.1775,34.105 -30.398,16.678 -30.397,-16.678 -30.397,-16.678 30.397,-16.677 30.397,-16.678 30.398,16.678 30.397,16.677 z m 0.98,-34.105 -30.397,-16.678 30.397,-16.678 30.397,-16.677 30.398,16.677 30.397,16.678 -30.397,16.678 -30.398,16.678 z m 122.374,34.105 -30.398,16.678 -30.397,-16.678 -30.397,-16.678 30.397,-16.677 30.397,-16.678 30.398,16.678 30.397,16.677 z m 0.98,-34.105 -30.397,-16.678 30.397,-16.678 30.397,-16.677 30.397,16.677 30.398,16.678 -30.398,16.678 -30.397,16.678 z m 122.177,34.105 -30.397,16.678 -30.397,-16.678 -30.397,-16.678 30.397,-16.677 30.397,-16.678 30.397,16.678 30.397,16.677 z m 0.981,-34.105 -30.397,-16.678 30.397,-16.678 30.397,-16.677 30.397,16.677 30.397,16.678 -30.397,16.678 -30.397,16.678 z m 122.177,34.105 -30.397,16.678 -30.398,-16.678 -30.397,-16.678 30.397,-16.677 30.398,-16.678 30.397,16.678 30.397,16.677 z m 0.98,-34.105 -30.397,-16.678 30.397,-16.678 30.398,-16.677 30.397,16.677 30.397,16.678 -30.397,16.678 -30.397,16.678 z m 122.178,34.105 -30.398,16.678 -30.397,-16.678 -30.397,-16.678 30.397,-16.677 30.397,-16.678 30.398,16.678 30.397,16.677 z m 0.98,-34.105 -30.397,-16.678 30.397,-16.678 30.397,-16.677 30.398,16.677 30.397,16.678 -30.397,16.678 -30.398,16.678 z m 122.177,34.105 -30.397,16.678 -30.397,-16.678 -30.397,-16.678 30.397,-16.677 30.397,-16.678 30.397,16.678 30.398,16.677 z m 0.981,-34.105 -30.397,-16.678 30.397,-16.678 30.397,-16.677 30.397,16.677 30.398,16.678 -30.398,16.678 -30.397,16.678 z m 122.177,34.105 -30.397,16.678 -30.397,-16.678 -30.398,-16.678 30.398,-16.677 30.397,-16.678 30.397,16.678 30.397,16.677 z m 0.981,-34.105 -30.398,-16.678 30.398,-16.678 30.397,-16.677 30.402,16.677 30.39,16.678 -30.39,16.678 -30.402,16.678 z m 122.179,34.105 -30.4,16.678 -30.4,-16.678 -30.394,-16.678 30.394,-16.677 30.4,-16.678 30.4,16.678 30.4,16.677 z m 61.77,-67.461 30.4,16.678 -30.4,16.678 -30.39,16.678 -30.4,-16.678 -30.4,-16.678 30.4,-16.678 30.4,-16.677 z m -0.19,-68.022 30.39,16.677 -30.39,16.678 -30.4,16.678 -30.4,-16.678 -30.4,-16.678 30.4,-16.677 30.4,-16.678 z m 0,-67.836 30.39,16.678 -30.39,16.678 -30.4,16.678 -30.4,-16.678 -30.4,-16.678 30.4,-16.678 30.4,-16.678 z m 0,-68.023 30.39,16.678 -30.39,16.678 -30.4,16.678 -30.4,-16.678 -30.4,-16.678 30.4,-16.678 30.4,-16.677 z m 0,-68.022 30.39,16.677 -30.39,16.678 -30.4,16.678 -30.4,-16.678 -30.4,-16.678 30.4,-16.677 30.4,-16.678 z m 0,-67.836 30.39,16.678 -30.39,16.678 -30.4,16.677 -30.4,-16.677 -30.4,-16.678 30.4,-16.678 30.4,-16.678 z m 0,-68.023 30.39,16.678 -30.39,16.678 -30.4,16.678 -30.4,-16.678 -30.4,-16.678 30.4,-16.678 30.4,-16.677 z m 0,-68.0225 30.39,16.6778 -30.39,16.6778 -30.4,16.6779 -30.4,-16.6779 -30.4,-16.6778 30.4,-16.6778 30.4,-16.6777 z m 0,-34.4799 -30.4,16.6778 -30.2,-16.6778 -30.4,-16.6777 30.4,-16.6778 30.4,-16.6778 30.39,16.6778 30.4,16.6778 z"
     fill="url(#paint1_radial_46_394)"
     fill-opacity="0.9"
     id="path4"
     style="fill:url(#paint1_radial_46_394)" />
  <defs
     id="defs24">
    <radialGradient
       id="paint0_radial_46_394"
       cx="0"
       cy="0"
       r="1"
       gradientUnits="userSpaceOnUse"
       gradientTransform="matrix(1448.4,0,0,1383.99,-341.92864,614.019)">
      <stop
         stop-color="#42E8E0"
         id="stop6" />
      <stop
         offset="0.5161"
         stop-color="#42E8E0"
         id="stop8" />
      <stop
         offset="0.9317"
         stop-color="#42E8E0"
         id="stop10" />
      <stop
         offset="1"
         stop-color="#42E8E0"
         id="stop12" />
    </radialGradient>
    <radialGradient
       id="paint1_radial_46_394"
       cx="0"
       cy="0"
       r="1"
       gradientUnits="userSpaceOnUse"
       gradientTransform="matrix(1448.4,0,0,1383.99,-341.92864,2.6817)">
      <stop
         stop-color="#42E8E0"
         id="stop15" />
      <stop
         offset="0.5161"
         stop-color="#42E8E0"
         id="stop17" />
      <stop
         offset="0.9317"
         stop-color="#42E8E0"
         id="stop19" />
      <stop
         offset="1"
         stop-color="#42E8E0"
         id="stop21" />
    </radialGradient>
  </defs>
</svg>
