<?xml version="1.0" encoding="UTF-8" standalone="no"?>
<svg
   width="36"
   height="36"
   viewBox="0 0 16 14"
   fill="none"
   version="1.1"
   id="svg17"
   sodipodi:docname="menu-close.svg"
   inkscape:version="1.2.1 (9c6d41e410, 2022-07-14)"
   xmlns:inkscape="http://www.inkscape.org/namespaces/inkscape"
   xmlns:sodipodi="http://sodipodi.sourceforge.net/DTD/sodipodi-0.dtd"
   xmlns="http://www.w3.org/2000/svg"
   xmlns:svg="http://www.w3.org/2000/svg">
  <sodipodi:namedview
     id="namedview19"
     pagecolor="#ffffff"
     bordercolor="#000000"
     borderopacity="0.25"
     inkscape:showpageshadow="2"
     inkscape:pageopacity="0.0"
     inkscape:pagecheckerboard="0"
     inkscape:deskcolor="#d1d1d1"
     showgrid="false"
     inkscape:zoom="16.558084"
     inkscape:cx="11.716332"
     inkscape:cy="20.382793"
     inkscape:window-width="2400"
     inkscape:window-height="1271"
     inkscape:window-x="-9"
     inkscape:window-y="-9"
     inkscape:window-maximized="1"
     inkscape:current-layer="menu" />
  <g
     id="menu"
     transform="matrix(0.99999468,0,0,1,1.9750605,0.91906028)">
    <g
       id="Union"
       transform="translate(-11.957295,-11.912851)">
      <path
         fill-rule="evenodd"
         clip-rule="evenodd"
         d="m 22.7229,12.2196 c 0.2929,-0.2928 0.7678,-0.2928 1.0607,10e-5 0.2928,0.2929 0.2928,0.7678 -10e-5,1.0607 l -4.7211,4.7203 4.7211,4.7202 c 0.2929,0.2929 0.2929,0.7678 10e-5,1.0607 -0.2929,0.2929 -0.7678,0.293 -1.0607,10e-5 l -4.7213,-4.7205 -4.7213,4.7205 c -0.2929,0.2929 -0.7678,0.2928 -1.0607,-10e-5 -0.2928,-0.2929 -0.2928,-0.7678 10e-5,-1.0607 l 4.7211,-4.7202 -4.7211,-4.7203 c -0.2929,-0.2929 -0.2929,-0.7678 -10e-5,-1.0607 0.2929,-0.2929 0.7678,-0.2929 1.0607,-10e-5 l 4.7213,4.7205 z"
         fill="#ffffff"
         id="path4" />
      <path
         fill-rule="evenodd"
         clip-rule="evenodd"
         d="m 22.7229,12.2196 c 0.2929,-0.2928 0.7678,-0.2928 1.0607,10e-5 0.2928,0.2929 0.2928,0.7678 -10e-5,1.0607 l -4.7211,4.7203 4.7211,4.7202 c 0.2929,0.2929 0.2929,0.7678 10e-5,1.0607 -0.2929,0.2929 -0.7678,0.293 -1.0607,10e-5 l -4.7213,-4.7205 -4.7213,4.7205 c -0.2929,0.2929 -0.7678,0.2928 -1.0607,-10e-5 -0.2928,-0.2929 -0.2928,-0.7678 10e-5,-1.0607 l 4.7211,-4.7202 -4.7211,-4.7203 c -0.2929,-0.2929 -0.2929,-0.7678 -10e-5,-1.0607 0.2929,-0.2929 0.7678,-0.2929 1.0607,-10e-5 l 4.7213,4.7205 z"
         fill="url(#paint0_linear_53_2305)"
         id="path6"
         style="fill:url(#paint0_linear_53_2305)" />
    </g>
  </g>
  <defs
     id="defs15">
    <linearGradient
       id="paint0_linear_53_2305"
       x1="11.6845"
       y1="28.27"
       x2="23.9287"
       y2="24.6571"
       gradientUnits="userSpaceOnUse">
      <stop
         stop-color="#0D748B"
         id="stop10" />
      <stop
         offset="1"
         stop-color="#1A0B73"
         id="stop12" />
    </linearGradient>
  </defs>
</svg>
